solid Untitled-548530e4
facet normal 0.0 0.0 -1.0
  outer loop
    vertex 0.0 40.0 0.0
    vertex 10.0 30.0 0.0
    vertex 0.0 0.0 0.0
  endloop
endfacet
facet normal 0.0 0.0 -1.0
  outer loop
    vertex 10.0 30.0 0.0
    vertex 0.0 40.0 0.0
    vertex 40.0 40.0 0.0
  endloop
endfacet
facet normal 0.0 0.0 -1.0
  outer loop
    vertex 10.0 30.0 0.0
    vertex 40.0 40.0 0.0
    vertex 30.0 30.0 0.0
  endloop
endfacet
facet normal 0.0 0.0 -1.0
  outer loop
    vertex 30.0 30.0 0.0
    vertex 40.0 40.0 0.0
    vertex 30.0 10.0 0.0
  endloop
endfacet
facet normal 0.0 0.0 -1.0
  outer loop
    vertex 0.0 0.0 0.0
    vertex 10.0 10.0 0.0
    vertex 40.0 0.0 0.0
  endloop
endfacet
facet normal 0.0 0.0 -1.0
  outer loop
    vertex 10.0 10.0 0.0
    vertex 0.0 0.0 0.0
    vertex 10.0 30.0 0.0
  endloop
endfacet
facet normal 0.0 0.0 -1.0
  outer loop
    vertex 40.0 0.0 0.0
    vertex 10.0 10.0 0.0
    vertex 30.0 10.0 0.0
  endloop
endfacet
facet normal 0.0 0.0 -1.0
  outer loop
    vertex 40.0 0.0 0.0
    vertex 30.0 10.0 0.0
    vertex 40.0 40.0 0.0
  endloop
endfacet
facet normal -0.0 1.0 0.0
  outer loop
    vertex 0.0 40.0 25.0
    vertex 40.0 40.0 0.0
    vertex 0.0 40.0 0.0
  endloop
endfacet
facet normal -0.0 1.0 0.0
  outer loop
    vertex 40.0 40.0 0.0
    vertex 0.0 40.0 25.0
    vertex 40.0 40.0 25.0
  endloop
endfacet
facet normal -1.0 0.0 0.0
  outer loop
    vertex 0.0 40.0 25.0
    vertex 0.0 0.0 0.0
    vertex 0.0 0.0 25.0
  endloop
endfacet
facet normal -1.0 0.0 0.0
  outer loop
    vertex 0.0 0.0 0.0
    vertex 0.0 40.0 25.0
    vertex 0.0 40.0 0.0
  endloop
endfacet
facet normal -0.0 -0.0 1.0
  outer loop
    vertex 0.0 0.0 25.0
    vertex 10.0 10.0 25.0
    vertex 0.0 40.0 25.0
  endloop
endfacet
facet normal -0.0 -0.0 1.0
  outer loop
    vertex 10.0 10.0 25.0
    vertex 0.0 0.0 25.0
    vertex 40.0 0.0 25.0
  endloop
endfacet
facet normal -0.0 -0.0 1.0
  outer loop
    vertex 10.0 10.0 25.0
    vertex 40.0 0.0 25.0
    vertex 30.0 10.0 25.0
  endloop
endfacet
facet normal -0.0 -0.0 1.0
  outer loop
    vertex 30.0 10.0 25.0
    vertex 40.0 0.0 25.0
    vertex 30.0 30.0 25.0
  endloop
endfacet
facet normal -0.0 -0.0 1.0
  outer loop
    vertex 0.0 40.0 25.0
    vertex 10.0 30.0 25.0
    vertex 40.0 40.0 25.0
  endloop
endfacet
facet normal -0.0 -0.0 1.0
  outer loop
    vertex 10.0 30.0 25.0
    vertex 0.0 40.0 25.0
    vertex 10.0 10.0 25.0
  endloop
endfacet
facet normal -0.0 -0.0 1.0
  outer loop
    vertex 40.0 40.0 25.0
    vertex 10.0 30.0 25.0
    vertex 30.0 30.0 25.0
  endloop
endfacet
facet normal -0.0 -0.0 1.0
  outer loop
    vertex 40.0 40.0 25.0
    vertex 30.0 30.0 25.0
    vertex 40.0 0.0 25.0
  endloop
endfacet
facet normal -0.0 -1.0 -0.0
  outer loop
    vertex 30.0 30.0 25.0
    vertex 10.0 30.0 0.0
    vertex 30.0 30.0 0.0
  endloop
endfacet
facet normal -0.0 -1.0 -0.0
  outer loop
    vertex 10.0 30.0 0.0
    vertex 30.0 30.0 25.0
    vertex 10.0 30.0 25.0
  endloop
endfacet
facet normal -1.0 0.0 0.0
  outer loop
    vertex 30.0 30.0 25.0
    vertex 30.0 10.0 0.0
    vertex 30.0 10.0 25.0
  endloop
endfacet
facet normal -1.0 0.0 0.0
  outer loop
    vertex 30.0 10.0 0.0
    vertex 30.0 30.0 25.0
    vertex 30.0 30.0 0.0
  endloop
endfacet
facet normal -0.0 1.0 0.0
  outer loop
    vertex 10.0 10.0 25.0
    vertex 30.0 10.0 0.0
    vertex 10.0 10.0 0.0
  endloop
endfacet
facet normal -0.0 1.0 0.0
  outer loop
    vertex 30.0 10.0 0.0
    vertex 10.0 10.0 25.0
    vertex 30.0 10.0 25.0
  endloop
endfacet
facet normal -0.0 -1.0 -0.0
  outer loop
    vertex 40.0 0.0 25.0
    vertex 0.0 0.0 0.0
    vertex 40.0 0.0 0.0
  endloop
endfacet
facet normal -0.0 -1.0 -0.0
  outer loop
    vertex 0.0 0.0 0.0
    vertex 40.0 0.0 25.0
    vertex 0.0 0.0 25.0
  endloop
endfacet
facet normal 1.0 0.0 0.0
  outer loop
    vertex 10.0 30.0 0.0
    vertex 10.0 10.0 25.0
    vertex 10.0 10.0 0.0
  endloop
endfacet
facet normal 1.0 0.0 0.0
  outer loop
    vertex 10.0 10.0 25.0
    vertex 10.0 30.0 0.0
    vertex 10.0 30.0 25.0
  endloop
endfacet
facet normal 1.0 0.0 0.0
  outer loop
    vertex 40.0 40.0 0.0
    vertex 40.0 0.0 25.0
    vertex 40.0 0.0 0.0
  endloop
endfacet
facet normal 1.0 0.0 0.0
  outer loop
    vertex 40.0 0.0 25.0
    vertex 40.0 40.0 0.0
    vertex 40.0 40.0 25.0
  endloop
endfacet
endsolid Untitled-548530e4
