solid Untitled-54671df4
facet normal 0.0 0.0 -1.0
  outer loop
    vertex -35.3553390593274 35.3553390593274 0.0
    vertex -39.9880084267166 0.979378407381513 0.0
    vertex -43.3012701892219 25.0 0.0
  endloop
endfacet
facet normal 0.0 0.0 -1.0
  outer loop
    vertex -39.9880084267166 0.979378407381513 0.0
    vertex -35.3553390593274 35.3553390593274 0.0
    vertex -38.3719682970379 11.295665053954 0.0
  endloop
endfacet
facet normal 0.0 0.0 -1.0
  outer loop
    vertex -38.3719682970379 11.295665053954 0.0
    vertex -35.3553390593274 35.3553390593274 0.0
    vertex -34.140941940592 20.8421707940686 0.0
  endloop
endfacet
facet normal 0.0 0.0 -1.0
  outer loop
    vertex -34.140941940592 20.8421707940686 0.0
    vertex -35.3553390593274 35.3553390593274 0.0
    vertex -25.0 43.3012701892219 0.0
  endloop
endfacet
facet normal 0.0 0.0 -1.0
  outer loop
    vertex -34.140941940592 20.8421707940686 0.0
    vertex -25.0 43.3012701892219 0.0
    vertex -27.5832668114689 28.9683170378832 0.0
  endloop
endfacet
facet normal 0.0 0.0 -1.0
  outer loop
    vertex -27.5832668114689 28.9683170378832 0.0
    vertex -25.0 43.3012701892219 0.0
    vertex -19.145837632648 35.1203203479735 0.0
  endloop
endfacet
facet normal 0.0 0.0 -1.0
  outer loop
    vertex -19.145837632648 35.1203203479735 0.0
    vertex -25.0 43.3012701892219 0.0
    vertex -12.940952255126 48.2962913144534 0.0
  endloop
endfacet
facet normal 0.0 0.0 -1.0
  outer loop
    vertex -19.145837632648 35.1203203479735 0.0
    vertex -12.940952255126 48.2962913144534 0.0
    vertex -9.40365125915469 38.8789318654229 0.0
  endloop
endfacet
facet normal 0.0 0.0 -1.0
  outer loop
    vertex -9.40365125915469 38.8789318654229 0.0
    vertex -12.940952255126 48.2962913144534 0.0
    vertex 3.06161699786838e-015 50.0 0.0
  endloop
endfacet
facet normal 0.0 0.0 -1.0
  outer loop
    vertex -9.40365125915469 38.8789318654229 0.0
    vertex 3.06161699786838e-015 50.0 0.0
    vertex 0.979378407381492 39.9880084267166 0.0
  endloop
endfacet
facet normal 0.0 0.0 -1.0
  outer loop
    vertex 0.979378407381492 39.9880084267166 0.0
    vertex 3.06161699786838e-015 50.0 0.0
    vertex 12.940952255126 48.2962913144534 0.0
  endloop
endfacet
facet normal 0.0 0.0 -1.0
  outer loop
    vertex 0.979378407381492 39.9880084267166 0.0
    vertex 12.940952255126 48.2962913144534 0.0
    vertex 11.295665053954 38.3719682970379 0.0
  endloop
endfacet
facet normal 0.0 0.0 -1.0
  outer loop
    vertex 11.295665053954 38.3719682970379 0.0
    vertex 12.940952255126 48.2962913144534 0.0
    vertex 20.8421707940686 34.140941940592 0.0
  endloop
endfacet
facet normal 0.0 0.0 -1.0
  outer loop
    vertex 20.8421707940686 34.140941940592 0.0
    vertex 12.940952255126 48.2962913144534 0.0
    vertex 25.0 43.3012701892219 0.0
  endloop
endfacet
facet normal 0.0 0.0 -1.0
  outer loop
    vertex 20.8421707940686 34.140941940592 0.0
    vertex 25.0 43.3012701892219 0.0
    vertex 28.9683170378832 27.583266811469 0.0
  endloop
endfacet
facet normal 0.0 0.0 -1.0
  outer loop
    vertex 28.9683170378832 27.583266811469 0.0
    vertex 25.0 43.3012701892219 0.0
    vertex 35.3553390593274 35.3553390593274 0.0
  endloop
endfacet
facet normal 0.0 0.0 -1.0
  outer loop
    vertex 28.9683170378832 27.583266811469 0.0
    vertex 35.3553390593274 35.3553390593274 0.0
    vertex 35.1203203479735 19.1458376326479 0.0
  endloop
endfacet
facet normal 0.0 0.0 -1.0
  outer loop
    vertex 35.1203203479735 19.1458376326479 0.0
    vertex 35.3553390593274 35.3553390593274 0.0
    vertex 38.8789318654229 9.40365125915469 0.0
  endloop
endfacet
facet normal 0.0 0.0 -1.0
  outer loop
    vertex 38.8789318654229 9.40365125915469 0.0
    vertex 35.3553390593274 35.3553390593274 0.0
    vertex 43.3012701892219 25.0 0.0
  endloop
endfacet
facet normal 0.0 0.0 -1.0
  outer loop
    vertex 38.8789318654229 9.40365125915469 0.0
    vertex 43.3012701892219 25.0 0.0
    vertex 39.9880084267166 -0.979378407381491 0.0
  endloop
endfacet
facet normal 0.0 0.0 -1.0
  outer loop
    vertex 39.9880084267166 -0.979378407381491 0.0
    vertex 43.3012701892219 25.0 0.0
    vertex 43.3012701892219 -25.0 0.0
  endloop
endfacet
facet normal 0.0 0.0 -1.0
  outer loop
    vertex 43.3012701892219 -25.0 0.0
    vertex 43.3012701892219 25.0 0.0
    vertex 48.2962913144534 -12.9409522551261 0.0
  endloop
endfacet
facet normal 0.0 0.0 -1.0
  outer loop
    vertex 48.2962913144534 -12.9409522551261 0.0
    vertex 43.3012701892219 25.0 0.0
    vertex 48.2962913144534 12.940952255126 0.0
  endloop
endfacet
facet normal 0.0 0.0 -1.0
  outer loop
    vertex 48.2962913144534 -12.9409522551261 0.0
    vertex 48.2962913144534 12.940952255126 0.0
    vertex 50.0 0.0 0.0
  endloop
endfacet
facet normal 0.0 0.0 -1.0
  outer loop
    vertex -48.2962913144534 12.9409522551261 0.0
    vertex -48.2962913144534 -12.940952255126 0.0
    vertex -50.0 6.12323399573677e-015 0.0
  endloop
endfacet
facet normal 0.0 0.0 -1.0
  outer loop
    vertex -48.2962913144534 -12.940952255126 0.0
    vertex -48.2962913144534 12.9409522551261 0.0
    vertex -43.3012701892219 -25.0 0.0
  endloop
endfacet
facet normal 0.0 0.0 -1.0
  outer loop
    vertex -43.3012701892219 -25.0 0.0
    vertex -48.2962913144534 12.9409522551261 0.0
    vertex -43.3012701892219 25.0 0.0
  endloop
endfacet
facet normal 0.0 0.0 -1.0
  outer loop
    vertex -43.3012701892219 -25.0 0.0
    vertex -43.3012701892219 25.0 0.0
    vertex -38.8789318654229 -9.40365125915468 0.0
  endloop
endfacet
facet normal 0.0 0.0 -1.0
  outer loop
    vertex -43.3012701892219 -25.0 0.0
    vertex -38.8789318654229 -9.40365125915468 0.0
    vertex -35.3553390593274 -35.3553390593274 0.0
  endloop
endfacet
facet normal 0.0 0.0 -1.0
  outer loop
    vertex -38.8789318654229 -9.40365125915468 0.0
    vertex -43.3012701892219 25.0 0.0
    vertex -39.9880084267166 0.979378407381513 0.0
  endloop
endfacet
facet normal 0.0 0.0 -1.0
  outer loop
    vertex -35.3553390593274 -35.3553390593274 0.0
    vertex -38.8789318654229 -9.40365125915468 0.0
    vertex -35.1203203479735 -19.1458376326479 0.0
  endloop
endfacet
facet normal 0.0 0.0 -1.0
  outer loop
    vertex -35.3553390593274 -35.3553390593274 0.0
    vertex -35.1203203479735 -19.1458376326479 0.0
    vertex -25.0 -43.3012701892219 0.0
  endloop
endfacet
facet normal 0.0 0.0 -1.0
  outer loop
    vertex -25.0 -43.3012701892219 0.0
    vertex -35.1203203479735 -19.1458376326479 0.0
    vertex -28.9683170378832 -27.5832668114689 0.0
  endloop
endfacet
facet normal 0.0 0.0 -1.0
  outer loop
    vertex -25.0 -43.3012701892219 0.0
    vertex -28.9683170378832 -27.5832668114689 0.0
    vertex -20.8421707940686 -34.140941940592 0.0
  endloop
endfacet
facet normal 0.0 0.0 -1.0
  outer loop
    vertex -25.0 -43.3012701892219 0.0
    vertex -20.8421707940686 -34.140941940592 0.0
    vertex -12.9409522551261 -48.2962913144534 0.0
  endloop
endfacet
facet normal 0.0 0.0 -1.0
  outer loop
    vertex -12.9409522551261 -48.2962913144534 0.0
    vertex -20.8421707940686 -34.140941940592 0.0
    vertex -11.295665053954 -38.3719682970379 0.0
  endloop
endfacet
facet normal 0.0 0.0 -1.0
  outer loop
    vertex -12.9409522551261 -48.2962913144534 0.0
    vertex -11.295665053954 -38.3719682970379 0.0
    vertex -9.18485099360515e-015 -50.0 0.0
  endloop
endfacet
facet normal 0.0 0.0 -1.0
  outer loop
    vertex -9.18485099360515e-015 -50.0 0.0
    vertex -11.295665053954 -38.3719682970379 0.0
    vertex -0.979378407381515 -39.9880084267166 0.0
  endloop
endfacet
facet normal 0.0 0.0 -1.0
  outer loop
    vertex -9.18485099360515e-015 -50.0 0.0
    vertex -0.979378407381515 -39.9880084267166 0.0
    vertex 9.40365125915467 -38.8789318654229 0.0
  endloop
endfacet
facet normal 0.0 0.0 -1.0
  outer loop
    vertex -9.18485099360515e-015 -50.0 0.0
    vertex 9.40365125915467 -38.8789318654229 0.0
    vertex 12.940952255126 -48.2962913144534 0.0
  endloop
endfacet
facet normal 0.0 0.0 -1.0
  outer loop
    vertex 12.940952255126 -48.2962913144534 0.0
    vertex 9.40365125915467 -38.8789318654229 0.0
    vertex 19.1458376326479 -35.1203203479735 0.0
  endloop
endfacet
facet normal 0.0 0.0 -1.0
  outer loop
    vertex 12.940952255126 -48.2962913144534 0.0
    vertex 19.1458376326479 -35.1203203479735 0.0
    vertex 25.0 -43.301270189222 0.0
  endloop
endfacet
facet normal 0.0 0.0 -1.0
  outer loop
    vertex 25.0 -43.301270189222 0.0
    vertex 19.1458376326479 -35.1203203479735 0.0
    vertex 27.5832668114689 -28.9683170378832 0.0
  endloop
endfacet
facet normal 0.0 0.0 -1.0
  outer loop
    vertex 25.0 -43.301270189222 0.0
    vertex 27.5832668114689 -28.9683170378832 0.0
    vertex 35.3553390593274 -35.3553390593274 0.0
  endloop
endfacet
facet normal 0.0 0.0 -1.0
  outer loop
    vertex 35.3553390593274 -35.3553390593274 0.0
    vertex 27.5832668114689 -28.9683170378832 0.0
    vertex 34.140941940592 -20.8421707940686 0.0
  endloop
endfacet
facet normal 0.0 0.0 -1.0
  outer loop
    vertex 35.3553390593274 -35.3553390593274 0.0
    vertex 34.140941940592 -20.8421707940686 0.0
    vertex 38.3719682970379 -11.295665053954 0.0
  endloop
endfacet
facet normal 0.0 0.0 -1.0
  outer loop
    vertex 35.3553390593274 -35.3553390593274 0.0
    vertex 38.3719682970379 -11.295665053954 0.0
    vertex 43.3012701892219 -25.0 0.0
  endloop
endfacet
facet normal 0.0 0.0 -1.0
  outer loop
    vertex 43.3012701892219 -25.0 0.0
    vertex 38.3719682970379 -11.295665053954 0.0
    vertex 39.9880084267166 -0.979378407381491 0.0
  endloop
endfacet
facet normal -0.866025403784439 -0.5 0.0
  outer loop
    vertex -43.3012701892219 -25.0 0.5
    vertex -35.3553390593274 -35.3553390593274 0.0
    vertex -35.3553390593274 -35.3553390593274 0.5
  endloop
endfacet
facet normal -0.707106781186548 -0.707106781186547 0.0
  outer loop
    vertex -35.3553390593274 -35.3553390593274 0.0
    vertex -43.3012701892219 -25.0 0.5
    vertex -43.3012701892219 -25.0 0.0
  endloop
endfacet
facet normal 0.965925826289068 -0.258819045102521 0.0
  outer loop
    vertex 48.2962913144534 -12.9409522551261 0.0
    vertex 43.3012701892219 -25.0 0.5
    vertex 43.3012701892219 -25.0 0.0
  endloop
endfacet
facet normal 0.866025403784438 -0.5 0.0
  outer loop
    vertex 43.3012701892219 -25.0 0.5
    vertex 48.2962913144534 -12.9409522551261 0.0
    vertex 48.2962913144534 -12.9409522551261 0.5
  endloop
endfacet
facet normal 1.0 -2.13866637495526e-016 0.0
  outer loop
    vertex 50.0 0.0 0.0
    vertex 48.2962913144534 -12.9409522551261 0.5
    vertex 48.2962913144534 -12.9409522551261 0.0
  endloop
endfacet
facet normal 0.965925826289068 -0.258819045102521 0.0
  outer loop
    vertex 48.2962913144534 -12.9409522551261 0.5
    vertex 50.0 0.0 0.0
    vertex 50.0 0.0 0.5
  endloop
endfacet
facet normal -0.965925826289068 -0.25881904510252 0.0
  outer loop
    vertex -48.2962913144534 -12.940952255126 0.5
    vertex -43.3012701892219 -25.0 0.0
    vertex -43.3012701892219 -25.0 0.5
  endloop
endfacet
facet normal -0.866025403784439 -0.5 0.0
  outer loop
    vertex -43.3012701892219 -25.0 0.0
    vertex -48.2962913144534 -12.940952255126 0.5
    vertex -48.2962913144534 -12.940952255126 0.0
  endloop
endfacet
facet normal -1.0 3.02977736451995e-016 0.0
  outer loop
    vertex -50.0 6.12323399573677e-015 0.5
    vertex -48.2962913144534 -12.940952255126 0.0
    vertex -48.2962913144534 -12.940952255126 0.5
  endloop
endfacet
facet normal -0.965925826289068 -0.25881904510252 0.0
  outer loop
    vertex -48.2962913144534 -12.940952255126 0.0
    vertex -50.0 6.12323399573677e-015 0.5
    vertex -50.0 6.12323399573677e-015 0.0
  endloop
endfacet
facet normal -0.965925826289068 0.258819045102521 0.0
  outer loop
    vertex -48.2962913144534 12.9409522551261 0.5
    vertex -50.0 6.12323399573677e-015 0.0
    vertex -50.0 6.12323399573677e-015 0.5
  endloop
endfacet
facet normal -1.0 3.02977736451995e-016 0.0
  outer loop
    vertex -50.0 6.12323399573677e-015 0.0
    vertex -48.2962913144534 12.9409522551261 0.5
    vertex -48.2962913144534 12.9409522551261 0.0
  endloop
endfacet
facet normal 0.866025403784438 -0.5 0.0
  outer loop
    vertex 43.3012701892219 -25.0 0.0
    vertex 35.3553390593274 -35.3553390593274 0.5
    vertex 35.3553390593274 -35.3553390593274 0.0
  endloop
endfacet
facet normal 0.707106781186547 -0.707106781186548 0.0
  outer loop
    vertex 35.3553390593274 -35.3553390593274 0.5
    vertex 43.3012701892219 -25.0 0.0
    vertex 43.3012701892219 -25.0 0.5
  endloop
endfacet
facet normal 0.707106781186547 -0.707106781186548 0.0
  outer loop
    vertex 35.3553390593274 -35.3553390593274 0.5
    vertex 25.0 -43.301270189222 0.0
    vertex 35.3553390593274 -35.3553390593274 0.0
  endloop
endfacet
facet normal 0.5 -0.866025403784439 0.0
  outer loop
    vertex 25.0 -43.301270189222 0.0
    vertex 35.3553390593274 -35.3553390593274 0.5
    vertex 25.0 -43.301270189222 0.5
  endloop
endfacet
facet normal 0.5 -0.866025403784439 0.0
  outer loop
    vertex 25.0 -43.301270189222 0.5
    vertex 12.940952255126 -48.2962913144534 0.0
    vertex 25.0 -43.301270189222 0.0
  endloop
endfacet
facet normal 0.25881904510252 -0.965925826289068 0.0
  outer loop
    vertex 12.940952255126 -48.2962913144534 0.0
    vertex 25.0 -43.301270189222 0.5
    vertex 12.940952255126 -48.2962913144534 0.5
  endloop
endfacet
facet normal 0.25881904510252 -0.965925826289068 0.0
  outer loop
    vertex 12.940952255126 -48.2962913144534 0.5
    vertex -9.18485099360515e-015 -50.0 0.0
    vertex 12.940952255126 -48.2962913144534 0.0
  endloop
endfacet
facet normal -4.00999945304111e-016 -1.0 0.0
  outer loop
    vertex -9.18485099360515e-015 -50.0 0.0
    vertex 12.940952255126 -48.2962913144534 0.5
    vertex -9.18485099360515e-015 -50.0 0.5
  endloop
endfacet
facet normal -4.00999945304111e-016 -1.0 0.0
  outer loop
    vertex -9.18485099360515e-015 -50.0 0.5
    vertex -12.9409522551261 -48.2962913144534 0.0
    vertex -9.18485099360515e-015 -50.0 0.0
  endloop
endfacet
facet normal -0.258819045102521 -0.965925826289068 0.0
  outer loop
    vertex -12.9409522551261 -48.2962913144534 0.0
    vertex -9.18485099360515e-015 -50.0 0.5
    vertex -12.9409522551261 -48.2962913144534 0.5
  endloop
endfacet
facet normal -0.258819045102521 -0.965925826289068 0.0
  outer loop
    vertex -12.9409522551261 -48.2962913144534 0.5
    vertex -25.0 -43.3012701892219 0.0
    vertex -12.9409522551261 -48.2962913144534 0.0
  endloop
endfacet
facet normal -0.500000000000001 -0.866025403784438 0.0
  outer loop
    vertex -25.0 -43.3012701892219 0.0
    vertex -12.9409522551261 -48.2962913144534 0.5
    vertex -25.0 -43.3012701892219 0.5
  endloop
endfacet
facet normal -0.500000000000001 -0.866025403784438 0.0
  outer loop
    vertex -25.0 -43.3012701892219 0.5
    vertex -35.3553390593274 -35.3553390593274 0.0
    vertex -25.0 -43.3012701892219 0.0
  endloop
endfacet
facet normal -0.707106781186548 -0.707106781186547 0.0
  outer loop
    vertex -35.3553390593274 -35.3553390593274 0.0
    vertex -25.0 -43.3012701892219 0.5
    vertex -35.3553390593274 -35.3553390593274 0.5
  endloop
endfacet
facet normal 0.5 0.866025403784439 0.0
  outer loop
    vertex 25.0 43.3012701892219 0.5
    vertex 35.3553390593274 35.3553390593274 0.0
    vertex 25.0 43.3012701892219 0.0
  endloop
endfacet
facet normal 0.707106781186548 0.707106781186547 0.0
  outer loop
    vertex 35.3553390593274 35.3553390593274 0.0
    vertex 25.0 43.3012701892219 0.5
    vertex 35.3553390593274 35.3553390593274 0.5
  endloop
endfacet
facet normal 0.707106781186548 0.707106781186547 0.0
  outer loop
    vertex 35.3553390593274 35.3553390593274 0.0
    vertex 43.3012701892219 25.0 0.5
    vertex 43.3012701892219 25.0 0.0
  endloop
endfacet
facet normal 0.866025403784439 0.5 0.0
  outer loop
    vertex 43.3012701892219 25.0 0.5
    vertex 35.3553390593274 35.3553390593274 0.0
    vertex 35.3553390593274 35.3553390593274 0.5
  endloop
endfacet
facet normal 0.866025403784439 0.5 0.0
  outer loop
    vertex 43.3012701892219 25.0 0.0
    vertex 48.2962913144534 12.940952255126 0.5
    vertex 48.2962913144534 12.940952255126 0.0
  endloop
endfacet
facet normal 0.965925826289068 0.258819045102521 0.0
  outer loop
    vertex 48.2962913144534 12.940952255126 0.5
    vertex 43.3012701892219 25.0 0.0
    vertex 43.3012701892219 25.0 0.5
  endloop
endfacet
facet normal -0.866025403784439 0.5 0.0
  outer loop
    vertex -43.3012701892219 25.0 0.5
    vertex -48.2962913144534 12.9409522551261 0.0
    vertex -48.2962913144534 12.9409522551261 0.5
  endloop
endfacet
facet normal -0.965925826289068 0.258819045102521 0.0
  outer loop
    vertex -48.2962913144534 12.9409522551261 0.0
    vertex -43.3012701892219 25.0 0.5
    vertex -43.3012701892219 25.0 0.0
  endloop
endfacet
facet normal -0.707106781186547 0.707106781186548 0.0
  outer loop
    vertex -35.3553390593274 35.3553390593274 0.5
    vertex -43.3012701892219 25.0 0.0
    vertex -43.3012701892219 25.0 0.5
  endloop
endfacet
facet normal -0.866025403784439 0.5 0.0
  outer loop
    vertex -43.3012701892219 25.0 0.0
    vertex -35.3553390593274 35.3553390593274 0.5
    vertex -35.3553390593274 35.3553390593274 0.0
  endloop
endfacet
facet normal -0.707106781186547 0.707106781186548 0.0
  outer loop
    vertex -35.3553390593274 35.3553390593274 0.5
    vertex -25.0 43.3012701892219 0.0
    vertex -35.3553390593274 35.3553390593274 0.0
  endloop
endfacet
facet normal -0.5 0.866025403784439 0.0
  outer loop
    vertex -25.0 43.3012701892219 0.0
    vertex -35.3553390593274 35.3553390593274 0.5
    vertex -25.0 43.3012701892219 0.5
  endloop
endfacet
facet normal -0.5 0.866025403784439 0.0
  outer loop
    vertex -25.0 43.3012701892219 0.5
    vertex -12.940952255126 48.2962913144534 0.0
    vertex -25.0 43.3012701892219 0.0
  endloop
endfacet
facet normal -0.258819045102521 0.965925826289068 0.0
  outer loop
    vertex -12.940952255126 48.2962913144534 0.0
    vertex -25.0 43.3012701892219 0.5
    vertex -12.940952255126 48.2962913144534 0.5
  endloop
endfacet
facet normal -0.258819045102521 0.965925826289068 0.0
  outer loop
    vertex -12.940952255126 48.2962913144534 0.5
    vertex 3.06161699786838e-015 50.0 0.0
    vertex -12.940952255126 48.2962913144534 0.0
  endloop
endfacet
facet normal 1.33666648434704e-016 1.0 0.0
  outer loop
    vertex 3.06161699786838e-015 50.0 0.0
    vertex -12.940952255126 48.2962913144534 0.5
    vertex 3.06161699786838e-015 50.0 0.5
  endloop
endfacet
facet normal 1.33666648434704e-016 1.0 0.0
  outer loop
    vertex 3.06161699786838e-015 50.0 0.5
    vertex 12.940952255126 48.2962913144534 0.0
    vertex 3.06161699786838e-015 50.0 0.0
  endloop
endfacet
facet normal 0.258819045102521 0.965925826289068 0.0
  outer loop
    vertex 12.940952255126 48.2962913144534 0.0
    vertex 3.06161699786838e-015 50.0 0.5
    vertex 12.940952255126 48.2962913144534 0.5
  endloop
endfacet
facet normal 0.258819045102521 0.965925826289068 0.0
  outer loop
    vertex 12.940952255126 48.2962913144534 0.5
    vertex 25.0 43.3012701892219 0.0
    vertex 12.940952255126 48.2962913144534 0.0
  endloop
endfacet
facet normal 0.5 0.866025403784439 0.0
  outer loop
    vertex 25.0 43.3012701892219 0.0
    vertex 12.940952255126 48.2962913144534 0.5
    vertex 25.0 43.3012701892219 0.5
  endloop
endfacet
facet normal -0.0 -0.0 1.0
  outer loop
    vertex -48.2962913144534 -12.940952255126 0.5
    vertex -48.2962913144534 12.9409522551261 0.5
    vertex -50.0 6.12323399573677e-015 0.5
  endloop
endfacet
facet normal -0.0 -0.0 1.0
  outer loop
    vertex -48.2962913144534 12.9409522551261 0.5
    vertex -48.2962913144534 -12.940952255126 0.5
    vertex -43.3012701892219 -25.0 0.5
  endloop
endfacet
facet normal -0.0 -0.0 1.0
  outer loop
    vertex -48.2962913144534 12.9409522551261 0.5
    vertex -43.3012701892219 -25.0 0.5
    vertex -43.3012701892219 25.0 0.5
  endloop
endfacet
facet normal -0.0 -0.0 1.0
  outer loop
    vertex -43.3012701892219 25.0 0.5
    vertex -43.3012701892219 -25.0 0.5
    vertex -38.8789318654229 -9.40365125915468 0.499999999999999
  endloop
endfacet
facet normal -0.0 -0.0 1.0
  outer loop
    vertex -38.8789318654229 -9.40365125915468 0.499999999999999
    vertex -43.3012701892219 -25.0 0.5
    vertex -35.3553390593274 -35.3553390593274 0.5
  endloop
endfacet
facet normal -0.0 -0.0 1.0
  outer loop
    vertex -43.3012701892219 25.0 0.5
    vertex -38.8789318654229 -9.40365125915468 0.499999999999999
    vertex -39.9880084267166 0.979378407381513 0.499999999999999
  endloop
endfacet
facet normal -0.0 -0.0 1.0
  outer loop
    vertex -38.8789318654229 -9.40365125915468 0.499999999999999
    vertex -35.3553390593274 -35.3553390593274 0.5
    vertex -35.1203203479735 -19.1458376326479 0.499999999999999
  endloop
endfacet
facet normal -0.0 -0.0 1.0
  outer loop
    vertex -35.1203203479735 -19.1458376326479 0.499999999999999
    vertex -35.3553390593274 -35.3553390593274 0.5
    vertex -25.0 -43.3012701892219 0.5
  endloop
endfacet
facet normal -0.0 -0.0 1.0
  outer loop
    vertex -35.1203203479735 -19.1458376326479 0.499999999999999
    vertex -25.0 -43.3012701892219 0.5
    vertex -28.9683170378832 -27.5832668114689 0.499999999999999
  endloop
endfacet
facet normal -0.0 -0.0 1.0
  outer loop
    vertex -28.9683170378832 -27.5832668114689 0.499999999999999
    vertex -25.0 -43.3012701892219 0.5
    vertex -20.8421707940686 -34.140941940592 0.499999999999999
  endloop
endfacet
facet normal -0.0 -0.0 1.0
  outer loop
    vertex -20.8421707940686 -34.140941940592 0.499999999999999
    vertex -25.0 -43.3012701892219 0.5
    vertex -12.9409522551261 -48.2962913144534 0.5
  endloop
endfacet
facet normal -0.0 -0.0 1.0
  outer loop
    vertex -20.8421707940686 -34.140941940592 0.499999999999999
    vertex -12.9409522551261 -48.2962913144534 0.5
    vertex -11.295665053954 -38.3719682970379 0.499999999999999
  endloop
endfacet
facet normal -0.0 -0.0 1.0
  outer loop
    vertex -11.295665053954 -38.3719682970379 0.499999999999999
    vertex -12.9409522551261 -48.2962913144534 0.5
    vertex -9.18485099360515e-015 -50.0 0.5
  endloop
endfacet
facet normal -0.0 -0.0 1.0
  outer loop
    vertex -11.295665053954 -38.3719682970379 0.499999999999999
    vertex -9.18485099360515e-015 -50.0 0.5
    vertex -0.979378407381515 -39.9880084267166 0.499999999999999
  endloop
endfacet
facet normal -0.0 -0.0 1.0
  outer loop
    vertex -0.979378407381515 -39.9880084267166 0.499999999999999
    vertex -9.18485099360515e-015 -50.0 0.5
    vertex 9.40365125915467 -38.8789318654229 0.499999999999999
  endloop
endfacet
facet normal -0.0 -0.0 1.0
  outer loop
    vertex 9.40365125915467 -38.8789318654229 0.499999999999999
    vertex -9.18485099360515e-015 -50.0 0.5
    vertex 12.940952255126 -48.2962913144534 0.5
  endloop
endfacet
facet normal -0.0 -0.0 1.0
  outer loop
    vertex 9.40365125915467 -38.8789318654229 0.499999999999999
    vertex 12.940952255126 -48.2962913144534 0.5
    vertex 19.1458376326479 -35.1203203479735 0.499999999999999
  endloop
endfacet
facet normal -0.0 -0.0 1.0
  outer loop
    vertex 19.1458376326479 -35.1203203479735 0.499999999999999
    vertex 12.940952255126 -48.2962913144534 0.5
    vertex 25.0 -43.301270189222 0.5
  endloop
endfacet
facet normal -0.0 -0.0 1.0
  outer loop
    vertex 19.1458376326479 -35.1203203479735 0.499999999999999
    vertex 25.0 -43.301270189222 0.5
    vertex 27.5832668114689 -28.9683170378832 0.499999999999999
  endloop
endfacet
facet normal -0.0 -0.0 1.0
  outer loop
    vertex 27.5832668114689 -28.9683170378832 0.499999999999999
    vertex 25.0 -43.301270189222 0.5
    vertex 35.3553390593274 -35.3553390593274 0.5
  endloop
endfacet
facet normal -0.0 -0.0 1.0
  outer loop
    vertex 27.5832668114689 -28.9683170378832 0.499999999999999
    vertex 35.3553390593274 -35.3553390593274 0.5
    vertex 34.140941940592 -20.8421707940686 0.499999999999999
  endloop
endfacet
facet normal -0.0 -0.0 1.0
  outer loop
    vertex 34.140941940592 -20.8421707940686 0.499999999999999
    vertex 35.3553390593274 -35.3553390593274 0.5
    vertex 38.3719682970379 -11.295665053954 0.499999999999999
  endloop
endfacet
facet normal -0.0 -0.0 1.0
  outer loop
    vertex 38.3719682970379 -11.295665053954 0.499999999999999
    vertex 35.3553390593274 -35.3553390593274 0.5
    vertex 43.3012701892219 -25.0 0.5
  endloop
endfacet
facet normal -0.0 -0.0 1.0
  outer loop
    vertex 38.3719682970379 -11.295665053954 0.499999999999999
    vertex 43.3012701892219 -25.0 0.5
    vertex 39.9880084267166 -0.979378407381491 0.499999999999999
  endloop
endfacet
facet normal -0.0 -0.0 1.0
  outer loop
    vertex -39.9880084267166 0.979378407381513 0.499999999999999
    vertex -35.3553390593274 35.3553390593274 0.5
    vertex -43.3012701892219 25.0 0.5
  endloop
endfacet
facet normal -0.0 -0.0 1.0
  outer loop
    vertex -35.3553390593274 35.3553390593274 0.5
    vertex -39.9880084267166 0.979378407381513 0.499999999999999
    vertex -38.3719682970379 11.295665053954 0.499999999999999
  endloop
endfacet
facet normal -0.0 -0.0 1.0
  outer loop
    vertex -35.3553390593274 35.3553390593274 0.5
    vertex -38.3719682970379 11.295665053954 0.499999999999999
    vertex -34.140941940592 20.8421707940686 0.499999999999999
  endloop
endfacet
facet normal -0.0 -0.0 1.0
  outer loop
    vertex -35.3553390593274 35.3553390593274 0.5
    vertex -34.140941940592 20.8421707940686 0.499999999999999
    vertex -25.0 43.3012701892219 0.5
  endloop
endfacet
facet normal -0.0 -0.0 1.0
  outer loop
    vertex -25.0 43.3012701892219 0.5
    vertex -34.140941940592 20.8421707940686 0.499999999999999
    vertex -27.5832668114689 28.9683170378832 0.499999999999999
  endloop
endfacet
facet normal -0.0 -0.0 1.0
  outer loop
    vertex -25.0 43.3012701892219 0.5
    vertex -27.5832668114689 28.9683170378832 0.499999999999999
    vertex -19.145837632648 35.1203203479735 0.499999999999999
  endloop
endfacet
facet normal -0.0 -0.0 1.0
  outer loop
    vertex -25.0 43.3012701892219 0.5
    vertex -19.145837632648 35.1203203479735 0.499999999999999
    vertex -12.940952255126 48.2962913144534 0.5
  endloop
endfacet
facet normal -0.0 -0.0 1.0
  outer loop
    vertex -12.940952255126 48.2962913144534 0.5
    vertex -19.145837632648 35.1203203479735 0.499999999999999
    vertex -9.40365125915469 38.8789318654229 0.499999999999999
  endloop
endfacet
facet normal -0.0 -0.0 1.0
  outer loop
    vertex -12.940952255126 48.2962913144534 0.5
    vertex -9.40365125915469 38.8789318654229 0.499999999999999
    vertex 3.06161699786838e-015 50.0 0.5
  endloop
endfacet
facet normal -0.0 -0.0 1.0
  outer loop
    vertex 3.06161699786838e-015 50.0 0.5
    vertex -9.40365125915469 38.8789318654229 0.499999999999999
    vertex 0.979378407381492 39.9880084267166 0.499999999999999
  endloop
endfacet
facet normal -0.0 -0.0 1.0
  outer loop
    vertex 3.06161699786838e-015 50.0 0.5
    vertex 0.979378407381492 39.9880084267166 0.499999999999999
    vertex 12.940952255126 48.2962913144534 0.5
  endloop
endfacet
facet normal -0.0 -0.0 1.0
  outer loop
    vertex 12.940952255126 48.2962913144534 0.5
    vertex 0.979378407381492 39.9880084267166 0.499999999999999
    vertex 11.295665053954 38.3719682970379 0.499999999999999
  endloop
endfacet
facet normal -0.0 -0.0 1.0
  outer loop
    vertex 12.940952255126 48.2962913144534 0.5
    vertex 11.295665053954 38.3719682970379 0.499999999999999
    vertex 20.8421707940686 34.140941940592 0.499999999999999
  endloop
endfacet
facet normal -0.0 -0.0 1.0
  outer loop
    vertex 12.940952255126 48.2962913144534 0.5
    vertex 20.8421707940686 34.140941940592 0.499999999999999
    vertex 25.0 43.3012701892219 0.5
  endloop
endfacet
facet normal -0.0 -0.0 1.0
  outer loop
    vertex 25.0 43.3012701892219 0.5
    vertex 20.8421707940686 34.140941940592 0.499999999999999
    vertex 28.9683170378832 27.583266811469 0.499999999999999
  endloop
endfacet
facet normal -0.0 -0.0 1.0
  outer loop
    vertex 25.0 43.3012701892219 0.5
    vertex 28.9683170378832 27.583266811469 0.499999999999999
    vertex 35.3553390593274 35.3553390593274 0.5
  endloop
endfacet
facet normal -0.0 -0.0 1.0
  outer loop
    vertex 35.3553390593274 35.3553390593274 0.5
    vertex 28.9683170378832 27.583266811469 0.499999999999999
    vertex 35.1203203479735 19.1458376326479 0.499999999999999
  endloop
endfacet
facet normal -0.0 -0.0 1.0
  outer loop
    vertex 35.3553390593274 35.3553390593274 0.5
    vertex 35.1203203479735 19.1458376326479 0.499999999999999
    vertex 38.8789318654229 9.40365125915469 0.499999999999999
  endloop
endfacet
facet normal -0.0 -0.0 1.0
  outer loop
    vertex 35.3553390593274 35.3553390593274 0.5
    vertex 38.8789318654229 9.40365125915469 0.499999999999999
    vertex 43.3012701892219 25.0 0.5
  endloop
endfacet
facet normal -0.0 -0.0 1.0
  outer loop
    vertex 43.3012701892219 25.0 0.5
    vertex 38.8789318654229 9.40365125915469 0.499999999999999
    vertex 39.9880084267166 -0.979378407381491 0.499999999999999
  endloop
endfacet
facet normal -0.0 -0.0 1.0
  outer loop
    vertex 43.3012701892219 25.0 0.5
    vertex 39.9880084267166 -0.979378407381491 0.499999999999999
    vertex 43.3012701892219 -25.0 0.5
  endloop
endfacet
facet normal -0.0 -0.0 1.0
  outer loop
    vertex 43.3012701892219 25.0 0.5
    vertex 43.3012701892219 -25.0 0.5
    vertex 48.2962913144534 -12.9409522551261 0.5
  endloop
endfacet
facet normal -0.0 -0.0 1.0
  outer loop
    vertex 43.3012701892219 25.0 0.5
    vertex 48.2962913144534 -12.9409522551261 0.5
    vertex 48.2962913144534 12.940952255126 0.5
  endloop
endfacet
facet normal -0.0 -0.0 1.0
  outer loop
    vertex 48.2962913144534 12.940952255126 0.5
    vertex 48.2962913144534 -12.9409522551261 0.5
    vertex 50.0 0.0 0.5
  endloop
endfacet
facet normal 0.965925826289068 0.258819045102521 0.0
  outer loop
    vertex 48.2962913144534 12.940952255126 0.0
    vertex 50.0 0.0 0.5
    vertex 50.0 0.0 0.0
  endloop
endfacet
facet normal 1.0 -2.13866637495526e-016 0.0
  outer loop
    vertex 50.0 0.0 0.5
    vertex 48.2962913144534 12.940952255126 0.0
    vertex 48.2962913144534 12.940952255126 0.5
  endloop
endfacet
facet normal 0.842696111695076 0.538389508937535 0.0
  outer loop
    vertex 21.0674027923769 13.4597377234384 0.0
    vertex 23.833184914902 7.54846320863319 0.5
    vertex 23.833184914902 7.54846320863319 0.0
  endloop
endfacet
facet normal 0.953327396596079 0.301938528345328 0.0
  outer loop
    vertex 23.833184914902 7.54846320863319 0.5
    vertex 21.0674027923769 13.4597377234384 0.0
    vertex 21.0674027923769 13.4597377234384 0.5
  endloop
endfacet
facet normal 0.674636479403223 0.738150134226381 0.0
  outer loop
    vertex 16.8659119850806 18.4537533556595 0.0
    vertex 21.0674027923769 13.4597377234384 0.5
    vertex 21.0674027923769 13.4597377234384 0.0
  endloop
endfacet
facet normal 0.842696111695076 0.538389508937535 0.0
  outer loop
    vertex 21.0674027923769 13.4597377234384 0.5
    vertex 16.8659119850806 18.4537533556595 0.0
    vertex 16.8659119850806 18.4537533556595 0.5
  endloop
endfacet
facet normal 0.460601485929537 0.887607047718472 0.0
  outer loop
    vertex 11.5150371482384 22.1901761929618 0.5
    vertex 16.8659119850806 18.4537533556595 0.0
    vertex 11.5150371482384 22.1901761929618 0.0
  endloop
endfacet
facet normal 0.674636479403223 0.738150134226381 0.0
  outer loop
    vertex 16.8659119850806 18.4537533556595 0.0
    vertex 11.5150371482384 22.1901761929618 0.5
    vertex 16.8659119850806 18.4537533556595 0.5
  endloop
endfacet
facet normal 0.215177262369698 0.976575007748551 0.0
  outer loop
    vertex 5.37943155924246 24.4143751937138 0.5
    vertex 11.5150371482384 22.1901761929618 0.0
    vertex 5.37943155924246 24.4143751937138 0.0
  endloop
endfacet
facet normal 0.460601485929537 0.887607047718472 0.0
  outer loop
    vertex 11.5150371482384 22.1901761929618 0.0
    vertex 5.37943155924246 24.4143751937138 0.5
    vertex 11.5150371482384 22.1901761929618 0.5
  endloop
endfacet
facet normal 0.521054269851716 0.8535235485148 0.0
  outer loop
    vertex -20.8421707940686 -34.140941940592 0.499999999999999
    vertex -11.295665053954 -38.3719682970379 0.0
    vertex -20.8421707940686 -34.140941940592 0.0
  endloop
endfacet
facet normal 0.28239162634885 0.959299207425948 0.0
  outer loop
    vertex -11.295665053954 -38.3719682970379 0.0
    vertex -20.8421707940686 -34.140941940592 0.499999999999999
    vertex -11.295665053954 -38.3719682970379 0.499999999999999
  endloop
endfacet
facet normal 0.724207925947081 0.689581670286724 0.0
  outer loop
    vertex -28.9683170378832 -27.5832668114689 0.499999999999999
    vertex -20.8421707940686 -34.140941940592 0.0
    vertex -28.9683170378832 -27.5832668114689 0.0
  endloop
endfacet
facet normal 0.521054269851716 0.8535235485148 0.0
  outer loop
    vertex -20.8421707940686 -34.140941940592 0.0
    vertex -28.9683170378832 -27.5832668114689 0.499999999999999
    vertex -20.8421707940686 -34.140941940592 0.499999999999999
  endloop
endfacet
facet normal 0.878008008699337 0.478645940816199 0.0
  outer loop
    vertex -35.1203203479735 -19.1458376326479 0.0
    vertex -28.9683170378832 -27.5832668114689 0.499999999999999
    vertex -28.9683170378832 -27.5832668114689 0.0
  endloop
endfacet
facet normal 0.724207925947081 0.689581670286724 0.0
  outer loop
    vertex -28.9683170378832 -27.5832668114689 0.499999999999999
    vertex -35.1203203479735 -19.1458376326479 0.0
    vertex -35.1203203479735 -19.1458376326479 0.499999999999999
  endloop
endfacet
facet normal 0.971973296635573 0.235091281478867 0.0
  outer loop
    vertex -38.8789318654229 -9.40365125915468 0.0
    vertex -35.1203203479735 -19.1458376326479 0.499999999999999
    vertex -35.1203203479735 -19.1458376326479 0.0
  endloop
endfacet
facet normal 0.878008008699337 0.478645940816199 0.0
  outer loop
    vertex -35.1203203479735 -19.1458376326479 0.499999999999999
    vertex -38.8789318654229 -9.40365125915468 0.0
    vertex -38.8789318654229 -9.40365125915468 0.499999999999999
  endloop
endfacet
facet normal 0.999700210667914 -0.024484460184538 0.0
  outer loop
    vertex -39.9880084267166 0.979378407381513 0.0
    vertex -38.8789318654229 -9.40365125915468 0.499999999999999
    vertex -38.8789318654229 -9.40365125915468 0.0
  endloop
endfacet
facet normal 0.971973296635573 0.235091281478867 0.0
  outer loop
    vertex -38.8789318654229 -9.40365125915468 0.499999999999999
    vertex -39.9880084267166 0.979378407381513 0.0
    vertex -39.9880084267166 0.979378407381513 0.499999999999999
  endloop
endfacet
facet normal 0.28239162634885 0.959299207425948 0.0
  outer loop
    vertex -11.295665053954 -38.3719682970379 0.499999999999999
    vertex -0.979378407381515 -39.9880084267166 0.0
    vertex -11.295665053954 -38.3719682970379 0.0
  endloop
endfacet
facet normal 0.024484460184538 0.999700210667914 0.0
  outer loop
    vertex -0.979378407381515 -39.9880084267166 0.0
    vertex -11.295665053954 -38.3719682970379 0.499999999999999
    vertex -0.979378407381515 -39.9880084267166 0.499999999999999
  endloop
endfacet
facet normal 0.024484460184538 0.999700210667914 0.0
  outer loop
    vertex -0.979378407381515 -39.9880084267166 0.499999999999999
    vertex 9.40365125915467 -38.8789318654229 0.0
    vertex -0.979378407381515 -39.9880084267166 0.0
  endloop
endfacet
facet normal -0.235091281478867 0.971973296635573 0.0
  outer loop
    vertex 9.40365125915467 -38.8789318654229 0.0
    vertex -0.979378407381515 -39.9880084267166 0.499999999999999
    vertex 9.40365125915467 -38.8789318654229 0.499999999999999
  endloop
endfacet
facet normal 0.044910936023396 -0.998990994867072 0.0
  outer loop
    vertex 1.1227734005849 -24.9747748716768 0.5
    vertex -5.37943155924246 -24.4143751937138 0.0
    vertex 1.1227734005849 -24.9747748716768 0.0
  endloop
endfacet
facet normal -0.215177262369699 -0.976575007748551 0.0
  outer loop
    vertex -5.37943155924246 -24.4143751937138 0.0
    vertex 1.1227734005849 -24.9747748716768 0.5
    vertex -5.37943155924246 -24.4143751937138 0.5
  endloop
endfacet
facet normal 0.301938528345327 -0.953327396596079 0.0
  outer loop
    vertex 7.54846320863317 -23.833184914902 0.5
    vertex 1.1227734005849 -24.9747748716768 0.0
    vertex 7.54846320863317 -23.833184914902 0.0
  endloop
endfacet
facet normal 0.044910936023396 -0.998990994867072 0.0
  outer loop
    vertex 1.1227734005849 -24.9747748716768 0.0
    vertex 7.54846320863317 -23.833184914902 0.5
    vertex 1.1227734005849 -24.9747748716768 0.5
  endloop
endfacet
facet normal 0.538389508937535 -0.842696111695076 0.0
  outer loop
    vertex 13.4597377234384 -21.0674027923769 0.5
    vertex 7.54846320863317 -23.833184914902 0.0
    vertex 13.4597377234384 -21.0674027923769 0.0
  endloop
endfacet
facet normal 0.301938528345327 -0.953327396596079 0.0
  outer loop
    vertex 7.54846320863317 -23.833184914902 0.0
    vertex 13.4597377234384 -21.0674027923769 0.5
    vertex 7.54846320863317 -23.833184914902 0.5
  endloop
endfacet
facet normal -0.215177262369699 -0.976575007748551 0.0
  outer loop
    vertex -5.37943155924246 -24.4143751937138 0.5
    vertex -11.5150371482384 -22.1901761929618 0.0
    vertex -5.37943155924246 -24.4143751937138 0.0
  endloop
endfacet
facet normal -0.460601485929538 -0.887607047718472 0.0
  outer loop
    vertex -11.5150371482384 -22.1901761929618 0.0
    vertex -5.37943155924246 -24.4143751937138 0.5
    vertex -11.5150371482384 -22.1901761929618 0.5
  endloop
endfacet
facet normal 0.0 0.0 -1.0
  outer loop
    vertex -24.4143751937138 5.37943155924246 0.0
    vertex -23.833184914902 -7.54846320863318 0.0
    vertex -24.9747748716768 -1.1227734005849 0.0
  endloop
endfacet
facet normal 0.0 0.0 -1.0
  outer loop
    vertex -23.833184914902 -7.54846320863318 0.0
    vertex -24.4143751937138 5.37943155924246 0.0
    vertex -22.1901761929618 11.5150371482384 0.0
  endloop
endfacet
facet normal 0.0 0.0 -1.0
  outer loop
    vertex -23.833184914902 -7.54846320863318 0.0
    vertex -22.1901761929618 11.5150371482384 0.0
    vertex -21.0674027923769 -13.4597377234384 0.0
  endloop
endfacet
facet normal 0.0 0.0 -1.0
  outer loop
    vertex -21.0674027923769 -13.4597377234384 0.0
    vertex -22.1901761929618 11.5150371482384 0.0
    vertex -18.4537533556595 16.8659119850806 0.0
  endloop
endfacet
facet normal 0.0 0.0 -1.0
  outer loop
    vertex -21.0674027923769 -13.4597377234384 0.0
    vertex -18.4537533556595 16.8659119850806 0.0
    vertex -16.8659119850806 -18.4537533556595 0.0
  endloop
endfacet
facet normal 0.0 0.0 -1.0
  outer loop
    vertex -16.8659119850806 -18.4537533556595 0.0
    vertex -18.4537533556595 16.8659119850806 0.0
    vertex -13.4597377234384 21.0674027923769 0.0
  endloop
endfacet
facet normal 0.0 0.0 -1.0
  outer loop
    vertex -16.8659119850806 -18.4537533556595 0.0
    vertex -13.4597377234384 21.0674027923769 0.0
    vertex -11.5150371482384 -22.1901761929618 0.0
  endloop
endfacet
facet normal 0.0 0.0 -1.0
  outer loop
    vertex -11.5150371482384 -22.1901761929618 0.0
    vertex -13.4597377234384 21.0674027923769 0.0
    vertex -7.54846320863318 23.833184914902 0.0
  endloop
endfacet
facet normal 0.0 0.0 -1.0
  outer loop
    vertex -11.5150371482384 -22.1901761929618 0.0
    vertex -7.54846320863318 23.833184914902 0.0
    vertex -5.37943155924246 -24.4143751937138 0.0
  endloop
endfacet
facet normal 0.0 0.0 -1.0
  outer loop
    vertex -5.37943155924246 -24.4143751937138 0.0
    vertex -7.54846320863318 23.833184914902 0.0
    vertex -1.12277340058491 24.9747748716768 0.0
  endloop
endfacet
facet normal 0.0 0.0 -1.0
  outer loop
    vertex -5.37943155924246 -24.4143751937138 0.0
    vertex -1.12277340058491 24.9747748716768 0.0
    vertex 1.1227734005849 -24.9747748716768 0.0
  endloop
endfacet
facet normal 0.0 0.0 -1.0
  outer loop
    vertex 1.1227734005849 -24.9747748716768 0.0
    vertex -1.12277340058491 24.9747748716768 0.0
    vertex 5.37943155924246 24.4143751937138 0.0
  endloop
endfacet
facet normal 0.0 0.0 -1.0
  outer loop
    vertex 1.1227734005849 -24.9747748716768 0.0
    vertex 5.37943155924246 24.4143751937138 0.0
    vertex 7.54846320863317 -23.833184914902 0.0
  endloop
endfacet
facet normal 0.0 0.0 -1.0
  outer loop
    vertex 7.54846320863317 -23.833184914902 0.0
    vertex 5.37943155924246 24.4143751937138 0.0
    vertex 11.5150371482384 22.1901761929618 0.0
  endloop
endfacet
facet normal 0.0 0.0 -1.0
  outer loop
    vertex 7.54846320863317 -23.833184914902 0.0
    vertex 11.5150371482384 22.1901761929618 0.0
    vertex 13.4597377234384 -21.0674027923769 0.0
  endloop
endfacet
facet normal 0.0 0.0 -1.0
  outer loop
    vertex 13.4597377234384 -21.0674027923769 0.0
    vertex 11.5150371482384 22.1901761929618 0.0
    vertex 16.8659119850806 18.4537533556595 0.0
  endloop
endfacet
facet normal 0.0 0.0 -1.0
  outer loop
    vertex 13.4597377234384 -21.0674027923769 0.0
    vertex 16.8659119850806 18.4537533556595 0.0
    vertex 18.4537533556595 -16.8659119850806 0.0
  endloop
endfacet
facet normal 0.0 0.0 -1.0
  outer loop
    vertex 18.4537533556595 -16.8659119850806 0.0
    vertex 16.8659119850806 18.4537533556595 0.0
    vertex 21.0674027923769 13.4597377234384 0.0
  endloop
endfacet
facet normal 0.0 0.0 -1.0
  outer loop
    vertex 18.4537533556595 -16.8659119850806 0.0
    vertex 21.0674027923769 13.4597377234384 0.0
    vertex 22.1901761929618 -11.5150371482384 0.0
  endloop
endfacet
facet normal 0.0 0.0 -1.0
  outer loop
    vertex 22.1901761929618 -11.5150371482384 0.0
    vertex 21.0674027923769 13.4597377234384 0.0
    vertex 23.833184914902 7.54846320863319 0.0
  endloop
endfacet
facet normal 0.0 0.0 -1.0
  outer loop
    vertex 22.1901761929618 -11.5150371482384 0.0
    vertex 23.833184914902 7.54846320863319 0.0
    vertex 24.4143751937138 -5.37943155924245 0.0
  endloop
endfacet
facet normal 0.0 0.0 -1.0
  outer loop
    vertex 24.4143751937138 -5.37943155924245 0.0
    vertex 23.833184914902 7.54846320863319 0.0
    vertex 24.9747748716768 1.12277340058491 0.0
  endloop
endfacet
facet normal -0.878008008699337 -0.478645940816199 0.0
  outer loop
    vertex 35.1203203479735 19.1458376326479 0.499999999999999
    vertex 38.8789318654229 9.40365125915469 0.0
    vertex 38.8789318654229 9.40365125915469 0.499999999999999
  endloop
endfacet
facet normal -0.971973296635573 -0.235091281478867 0.0
  outer loop
    vertex 38.8789318654229 9.40365125915469 0.0
    vertex 35.1203203479735 19.1458376326479 0.499999999999999
    vertex 35.1203203479735 19.1458376326479 0.0
  endloop
endfacet
facet normal -0.971973296635573 -0.235091281478867 0.0
  outer loop
    vertex 38.8789318654229 9.40365125915469 0.499999999999999
    vertex 39.9880084267166 -0.979378407381491 0.0
    vertex 39.9880084267166 -0.979378407381491 0.499999999999999
  endloop
endfacet
facet normal -0.999700210667914 0.0244844601845375 0.0
  outer loop
    vertex 39.9880084267166 -0.979378407381491 0.0
    vertex 38.8789318654229 9.40365125915469 0.499999999999999
    vertex 38.8789318654229 9.40365125915469 0.0
  endloop
endfacet
facet normal -0.999700210667914 0.0244844601845375 0.0
  outer loop
    vertex 39.9880084267166 -0.979378407381491 0.499999999999999
    vertex 38.3719682970379 -11.295665053954 0.0
    vertex 38.3719682970379 -11.295665053954 0.499999999999999
  endloop
endfacet
facet normal -0.959299207425948 0.28239162634885 0.0
  outer loop
    vertex 38.3719682970379 -11.295665053954 0.0
    vertex 39.9880084267166 -0.979378407381491 0.499999999999999
    vertex 39.9880084267166 -0.979378407381491 0.0
  endloop
endfacet
facet normal 0.959299207425948 -0.28239162634885 0.0
  outer loop
    vertex -38.3719682970379 11.295665053954 0.0
    vertex -39.9880084267166 0.979378407381513 0.499999999999999
    vertex -39.9880084267166 0.979378407381513 0.0
  endloop
endfacet
facet normal 0.999700210667914 -0.024484460184538 0.0
  outer loop
    vertex -39.9880084267166 0.979378407381513 0.499999999999999
    vertex -38.3719682970379 11.295665053954 0.0
    vertex -38.3719682970379 11.295665053954 0.499999999999999
  endloop
endfacet
facet normal 0.8535235485148 -0.521054269851715 0.0
  outer loop
    vertex -34.140941940592 20.8421707940686 0.0
    vertex -38.3719682970379 11.295665053954 0.499999999999999
    vertex -38.3719682970379 11.295665053954 0.0
  endloop
endfacet
facet normal 0.959299207425948 -0.28239162634885 0.0
  outer loop
    vertex -38.3719682970379 11.295665053954 0.499999999999999
    vertex -34.140941940592 20.8421707940686 0.0
    vertex -34.140941940592 20.8421707940686 0.499999999999999
  endloop
endfacet
facet normal 0.689581670286724 -0.724207925947081 0.0
  outer loop
    vertex -27.5832668114689 28.9683170378832 0.0
    vertex -34.140941940592 20.8421707940686 0.499999999999999
    vertex -34.140941940592 20.8421707940686 0.0
  endloop
endfacet
facet normal 0.8535235485148 -0.521054269851715 0.0
  outer loop
    vertex -34.140941940592 20.8421707940686 0.499999999999999
    vertex -27.5832668114689 28.9683170378832 0.0
    vertex -27.5832668114689 28.9683170378832 0.499999999999999
  endloop
endfacet
facet normal 0.478645940816199 -0.878008008699337 0.0
  outer loop
    vertex -19.145837632648 35.1203203479735 0.499999999999999
    vertex -27.5832668114689 28.9683170378832 0.0
    vertex -19.145837632648 35.1203203479735 0.0
  endloop
endfacet
facet normal 0.689581670286724 -0.724207925947081 0.0
  outer loop
    vertex -27.5832668114689 28.9683170378832 0.0
    vertex -19.145837632648 35.1203203479735 0.499999999999999
    vertex -27.5832668114689 28.9683170378832 0.499999999999999
  endloop
endfacet
facet normal 0.235091281478867 -0.971973296635573 0.0
  outer loop
    vertex -9.40365125915469 38.8789318654229 0.499999999999999
    vertex -19.145837632648 35.1203203479735 0.0
    vertex -9.40365125915469 38.8789318654229 0.0
  endloop
endfacet
facet normal 0.478645940816199 -0.878008008699337 0.0
  outer loop
    vertex -19.145837632648 35.1203203479735 0.0
    vertex -9.40365125915469 38.8789318654229 0.499999999999999
    vertex -19.145837632648 35.1203203479735 0.499999999999999
  endloop
endfacet
facet normal -0.0244844601845375 -0.999700210667914 0.0
  outer loop
    vertex 0.979378407381492 39.9880084267166 0.499999999999999
    vertex -9.40365125915469 38.8789318654229 0.0
    vertex 0.979378407381492 39.9880084267166 0.0
  endloop
endfacet
facet normal 0.235091281478867 -0.971973296635573 0.0
  outer loop
    vertex -9.40365125915469 38.8789318654229 0.0
    vertex 0.979378407381492 39.9880084267166 0.499999999999999
    vertex -9.40365125915469 38.8789318654229 0.499999999999999
  endloop
endfacet
facet normal -0.28239162634885 -0.959299207425948 0.0
  outer loop
    vertex 11.295665053954 38.3719682970379 0.499999999999999
    vertex 0.979378407381492 39.9880084267166 0.0
    vertex 11.295665053954 38.3719682970379 0.0
  endloop
endfacet
facet normal -0.0244844601845375 -0.999700210667914 0.0
  outer loop
    vertex 0.979378407381492 39.9880084267166 0.0
    vertex 11.295665053954 38.3719682970379 0.499999999999999
    vertex 0.979378407381492 39.9880084267166 0.499999999999999
  endloop
endfacet
facet normal -0.521054269851715 -0.8535235485148 0.0
  outer loop
    vertex 20.8421707940686 34.140941940592 0.499999999999999
    vertex 11.295665053954 38.3719682970379 0.0
    vertex 20.8421707940686 34.140941940592 0.0
  endloop
endfacet
facet normal -0.28239162634885 -0.959299207425948 0.0
  outer loop
    vertex 11.295665053954 38.3719682970379 0.0
    vertex 20.8421707940686 34.140941940592 0.499999999999999
    vertex 11.295665053954 38.3719682970379 0.499999999999999
  endloop
endfacet
facet normal -0.724207925947081 -0.689581670286724 0.0
  outer loop
    vertex 28.9683170378832 27.583266811469 0.499999999999999
    vertex 20.8421707940686 34.140941940592 0.0
    vertex 28.9683170378832 27.583266811469 0.0
  endloop
endfacet
facet normal -0.521054269851715 -0.8535235485148 0.0
  outer loop
    vertex 20.8421707940686 34.140941940592 0.0
    vertex 28.9683170378832 27.583266811469 0.499999999999999
    vertex 20.8421707940686 34.140941940592 0.499999999999999
  endloop
endfacet
facet normal -0.235091281478867 0.971973296635573 0.0
  outer loop
    vertex 9.40365125915467 -38.8789318654229 0.499999999999999
    vertex 19.1458376326479 -35.1203203479735 0.0
    vertex 9.40365125915467 -38.8789318654229 0.0
  endloop
endfacet
facet normal -0.478645940816198 0.878008008699338 0.0
  outer loop
    vertex 19.1458376326479 -35.1203203479735 0.0
    vertex 9.40365125915467 -38.8789318654229 0.499999999999999
    vertex 19.1458376326479 -35.1203203479735 0.499999999999999
  endloop
endfacet
facet normal -0.478645940816198 0.878008008699338 0.0
  outer loop
    vertex 19.1458376326479 -35.1203203479735 0.499999999999999
    vertex 27.5832668114689 -28.9683170378832 0.0
    vertex 19.1458376326479 -35.1203203479735 0.0
  endloop
endfacet
facet normal -0.689581670286724 0.724207925947081 0.0
  outer loop
    vertex 27.5832668114689 -28.9683170378832 0.0
    vertex 19.1458376326479 -35.1203203479735 0.499999999999999
    vertex 27.5832668114689 -28.9683170378832 0.499999999999999
  endloop
endfacet
facet normal -0.724207925947081 -0.689581670286724 0.0
  outer loop
    vertex 28.9683170378832 27.583266811469 0.499999999999999
    vertex 35.1203203479735 19.1458376326479 0.0
    vertex 35.1203203479735 19.1458376326479 0.499999999999999
  endloop
endfacet
facet normal -0.878008008699337 -0.478645940816199 0.0
  outer loop
    vertex 35.1203203479735 19.1458376326479 0.0
    vertex 28.9683170378832 27.583266811469 0.499999999999999
    vertex 28.9683170378832 27.583266811469 0.0
  endloop
endfacet
facet normal -0.959299207425948 0.28239162634885 0.0
  outer loop
    vertex 38.3719682970379 -11.295665053954 0.499999999999999
    vertex 34.140941940592 -20.8421707940686 0.0
    vertex 34.140941940592 -20.8421707940686 0.499999999999999
  endloop
endfacet
facet normal -0.8535235485148 0.521054269851715 0.0
  outer loop
    vertex 34.140941940592 -20.8421707940686 0.0
    vertex 38.3719682970379 -11.295665053954 0.499999999999999
    vertex 38.3719682970379 -11.295665053954 0.0
  endloop
endfacet
facet normal -0.8535235485148 0.521054269851715 0.0
  outer loop
    vertex 34.140941940592 -20.8421707940686 0.499999999999999
    vertex 27.5832668114689 -28.9683170378832 0.0
    vertex 27.5832668114689 -28.9683170378832 0.499999999999999
  endloop
endfacet
facet normal -0.689581670286724 0.724207925947081 0.0
  outer loop
    vertex 27.5832668114689 -28.9683170378832 0.0
    vertex 34.140941940592 -20.8421707940686 0.499999999999999
    vertex 34.140941940592 -20.8421707940686 0.0
  endloop
endfacet
facet normal 0.738150134226381 -0.674636479403224 0.0
  outer loop
    vertex 18.4537533556595 -16.8659119850806 0.5
    vertex 13.4597377234384 -21.0674027923769 0.0
    vertex 18.4537533556595 -16.8659119850806 0.0
  endloop
endfacet
facet normal 0.538389508937535 -0.842696111695076 0.0
  outer loop
    vertex 13.4597377234384 -21.0674027923769 0.0
    vertex 18.4537533556595 -16.8659119850806 0.5
    vertex 13.4597377234384 -21.0674027923769 0.5
  endloop
endfacet
facet normal 0.887607047718472 -0.460601485929537 0.0
  outer loop
    vertex 22.1901761929618 -11.5150371482384 0.0
    vertex 18.4537533556595 -16.8659119850806 0.5
    vertex 18.4537533556595 -16.8659119850806 0.0
  endloop
endfacet
facet normal 0.738150134226381 -0.674636479403224 0.0
  outer loop
    vertex 18.4537533556595 -16.8659119850806 0.5
    vertex 22.1901761929618 -11.5150371482384 0.0
    vertex 22.1901761929618 -11.5150371482384 0.5
  endloop
endfacet
facet normal 0.976575007748551 -0.215177262369698 0.0
  outer loop
    vertex 24.4143751937138 -5.37943155924245 0.0
    vertex 22.1901761929618 -11.5150371482384 0.5
    vertex 22.1901761929618 -11.5150371482384 0.0
  endloop
endfacet
facet normal 0.887607047718472 -0.460601485929537 0.0
  outer loop
    vertex 22.1901761929618 -11.5150371482384 0.5
    vertex 24.4143751937138 -5.37943155924245 0.0
    vertex 24.4143751937138 -5.37943155924245 0.5
  endloop
endfacet
facet normal 0.998990994867072 0.0449109360233962 0.0
  outer loop
    vertex 24.9747748716768 1.12277340058491 0.0
    vertex 24.4143751937138 -5.37943155924245 0.5
    vertex 24.4143751937138 -5.37943155924245 0.0
  endloop
endfacet
facet normal 0.976575007748551 -0.215177262369698 0.0
  outer loop
    vertex 24.4143751937138 -5.37943155924245 0.5
    vertex 24.9747748716768 1.12277340058491 0.0
    vertex 24.9747748716768 1.12277340058491 0.5
  endloop
endfacet
facet normal 0.953327396596079 0.301938528345328 0.0
  outer loop
    vertex 23.833184914902 7.54846320863319 0.0
    vertex 24.9747748716768 1.12277340058491 0.5
    vertex 24.9747748716768 1.12277340058491 0.0
  endloop
endfacet
facet normal 0.998990994867072 0.0449109360233962 0.0
  outer loop
    vertex 24.9747748716768 1.12277340058491 0.5
    vertex 23.833184914902 7.54846320863319 0.0
    vertex 23.833184914902 7.54846320863319 0.5
  endloop
endfacet
facet normal -0.0 -0.0 1.0
  outer loop
    vertex -23.833184914902 -7.54846320863318 0.5
    vertex -24.4143751937138 5.37943155924246 0.5
    vertex -24.9747748716768 -1.1227734005849 0.5
  endloop
endfacet
facet normal -0.0 -0.0 1.0
  outer loop
    vertex -24.4143751937138 5.37943155924246 0.5
    vertex -23.833184914902 -7.54846320863318 0.5
    vertex -22.1901761929618 11.5150371482384 0.5
  endloop
endfacet
facet normal -0.0 -0.0 1.0
  outer loop
    vertex -22.1901761929618 11.5150371482384 0.5
    vertex -23.833184914902 -7.54846320863318 0.5
    vertex -21.0674027923769 -13.4597377234384 0.5
  endloop
endfacet
facet normal -0.0 -0.0 1.0
  outer loop
    vertex -22.1901761929618 11.5150371482384 0.5
    vertex -21.0674027923769 -13.4597377234384 0.5
    vertex -18.4537533556595 16.8659119850806 0.5
  endloop
endfacet
facet normal -0.0 -0.0 1.0
  outer loop
    vertex -18.4537533556595 16.8659119850806 0.5
    vertex -21.0674027923769 -13.4597377234384 0.5
    vertex -16.8659119850806 -18.4537533556595 0.5
  endloop
endfacet
facet normal -0.0 -0.0 1.0
  outer loop
    vertex -18.4537533556595 16.8659119850806 0.5
    vertex -16.8659119850806 -18.4537533556595 0.5
    vertex -13.4597377234384 21.0674027923769 0.5
  endloop
endfacet
facet normal -0.0 -0.0 1.0
  outer loop
    vertex -13.4597377234384 21.0674027923769 0.5
    vertex -16.8659119850806 -18.4537533556595 0.5
    vertex -11.5150371482384 -22.1901761929618 0.5
  endloop
endfacet
facet normal -0.0 -0.0 1.0
  outer loop
    vertex -13.4597377234384 21.0674027923769 0.5
    vertex -11.5150371482384 -22.1901761929618 0.5
    vertex -7.54846320863318 23.833184914902 0.5
  endloop
endfacet
facet normal -0.0 -0.0 1.0
  outer loop
    vertex -7.54846320863318 23.833184914902 0.5
    vertex -11.5150371482384 -22.1901761929618 0.5
    vertex -5.37943155924246 -24.4143751937138 0.5
  endloop
endfacet
facet normal -0.0 -0.0 1.0
  outer loop
    vertex -7.54846320863318 23.833184914902 0.5
    vertex -5.37943155924246 -24.4143751937138 0.5
    vertex -1.12277340058491 24.9747748716768 0.5
  endloop
endfacet
facet normal -0.0 -0.0 1.0
  outer loop
    vertex -1.12277340058491 24.9747748716768 0.5
    vertex -5.37943155924246 -24.4143751937138 0.5
    vertex 1.1227734005849 -24.9747748716768 0.5
  endloop
endfacet
facet normal -0.0 -0.0 1.0
  outer loop
    vertex -1.12277340058491 24.9747748716768 0.5
    vertex 1.1227734005849 -24.9747748716768 0.5
    vertex 5.37943155924246 24.4143751937138 0.5
  endloop
endfacet
facet normal -0.0 -0.0 1.0
  outer loop
    vertex 5.37943155924246 24.4143751937138 0.5
    vertex 1.1227734005849 -24.9747748716768 0.5
    vertex 7.54846320863317 -23.833184914902 0.5
  endloop
endfacet
facet normal -0.0 -0.0 1.0
  outer loop
    vertex 5.37943155924246 24.4143751937138 0.5
    vertex 7.54846320863317 -23.833184914902 0.5
    vertex 11.5150371482384 22.1901761929618 0.5
  endloop
endfacet
facet normal -0.0 -0.0 1.0
  outer loop
    vertex 11.5150371482384 22.1901761929618 0.5
    vertex 7.54846320863317 -23.833184914902 0.5
    vertex 13.4597377234384 -21.0674027923769 0.5
  endloop
endfacet
facet normal -0.0 -0.0 1.0
  outer loop
    vertex 11.5150371482384 22.1901761929618 0.5
    vertex 13.4597377234384 -21.0674027923769 0.5
    vertex 16.8659119850806 18.4537533556595 0.5
  endloop
endfacet
facet normal -0.0 -0.0 1.0
  outer loop
    vertex 16.8659119850806 18.4537533556595 0.5
    vertex 13.4597377234384 -21.0674027923769 0.5
    vertex 18.4537533556595 -16.8659119850806 0.5
  endloop
endfacet
facet normal -0.0 -0.0 1.0
  outer loop
    vertex 16.8659119850806 18.4537533556595 0.5
    vertex 18.4537533556595 -16.8659119850806 0.5
    vertex 21.0674027923769 13.4597377234384 0.5
  endloop
endfacet
facet normal -0.0 -0.0 1.0
  outer loop
    vertex 21.0674027923769 13.4597377234384 0.5
    vertex 18.4537533556595 -16.8659119850806 0.5
    vertex 22.1901761929618 -11.5150371482384 0.5
  endloop
endfacet
facet normal -0.0 -0.0 1.0
  outer loop
    vertex 21.0674027923769 13.4597377234384 0.5
    vertex 22.1901761929618 -11.5150371482384 0.5
    vertex 23.833184914902 7.54846320863319 0.5
  endloop
endfacet
facet normal -0.0 -0.0 1.0
  outer loop
    vertex 23.833184914902 7.54846320863319 0.5
    vertex 22.1901761929618 -11.5150371482384 0.5
    vertex 24.4143751937138 -5.37943155924245 0.5
  endloop
endfacet
facet normal -0.0 -0.0 1.0
  outer loop
    vertex 23.833184914902 7.54846320863319 0.5
    vertex 24.4143751937138 -5.37943155924245 0.5
    vertex 24.9747748716768 1.12277340058491 0.5
  endloop
endfacet
facet normal -0.0449109360233962 0.998990994867072 0.0
  outer loop
    vertex -1.12277340058491 24.9747748716768 0.5
    vertex 5.37943155924246 24.4143751937138 0.0
    vertex -1.12277340058491 24.9747748716768 0.0
  endloop
endfacet
facet normal 0.215177262369698 0.976575007748551 0.0
  outer loop
    vertex 5.37943155924246 24.4143751937138 0.0
    vertex -1.12277340058491 24.9747748716768 0.5
    vertex 5.37943155924246 24.4143751937138 0.5
  endloop
endfacet
facet normal -0.301938528345327 0.953327396596079 0.0
  outer loop
    vertex -7.54846320863318 23.833184914902 0.5
    vertex -1.12277340058491 24.9747748716768 0.0
    vertex -7.54846320863318 23.833184914902 0.0
  endloop
endfacet
facet normal -0.0449109360233962 0.998990994867072 0.0
  outer loop
    vertex -1.12277340058491 24.9747748716768 0.0
    vertex -7.54846320863318 23.833184914902 0.5
    vertex -1.12277340058491 24.9747748716768 0.5
  endloop
endfacet
facet normal -0.538389508937535 0.842696111695076 0.0
  outer loop
    vertex -13.4597377234384 21.0674027923769 0.5
    vertex -7.54846320863318 23.833184914902 0.0
    vertex -13.4597377234384 21.0674027923769 0.0
  endloop
endfacet
facet normal -0.301938528345327 0.953327396596079 0.0
  outer loop
    vertex -7.54846320863318 23.833184914902 0.0
    vertex -13.4597377234384 21.0674027923769 0.5
    vertex -7.54846320863318 23.833184914902 0.5
  endloop
endfacet
facet normal -0.738150134226381 0.674636479403224 0.0
  outer loop
    vertex -18.4537533556595 16.8659119850806 0.5
    vertex -13.4597377234384 21.0674027923769 0.0
    vertex -18.4537533556595 16.8659119850806 0.0
  endloop
endfacet
facet normal -0.538389508937535 0.842696111695076 0.0
  outer loop
    vertex -13.4597377234384 21.0674027923769 0.0
    vertex -18.4537533556595 16.8659119850806 0.5
    vertex -13.4597377234384 21.0674027923769 0.5
  endloop
endfacet
facet normal -0.738150134226381 0.674636479403224 0.0
  outer loop
    vertex -18.4537533556595 16.8659119850806 0.5
    vertex -22.1901761929618 11.5150371482384 0.0
    vertex -22.1901761929618 11.5150371482384 0.5
  endloop
endfacet
facet normal -0.887607047718472 0.460601485929537 0.0
  outer loop
    vertex -22.1901761929618 11.5150371482384 0.0
    vertex -18.4537533556595 16.8659119850806 0.5
    vertex -18.4537533556595 16.8659119850806 0.0
  endloop
endfacet
facet normal -0.887607047718472 0.460601485929537 0.0
  outer loop
    vertex -22.1901761929618 11.5150371482384 0.5
    vertex -24.4143751937138 5.37943155924246 0.0
    vertex -24.4143751937138 5.37943155924246 0.5
  endloop
endfacet
facet normal -0.976575007748551 0.215177262369698 0.0
  outer loop
    vertex -24.4143751937138 5.37943155924246 0.0
    vertex -22.1901761929618 11.5150371482384 0.5
    vertex -22.1901761929618 11.5150371482384 0.0
  endloop
endfacet
facet normal -0.976575007748551 0.215177262369698 0.0
  outer loop
    vertex -24.4143751937138 5.37943155924246 0.5
    vertex -24.9747748716768 -1.1227734005849 0.0
    vertex -24.9747748716768 -1.1227734005849 0.5
  endloop
endfacet
facet normal -0.998990994867072 -0.0449109360233959 0.0
  outer loop
    vertex -24.9747748716768 -1.1227734005849 0.0
    vertex -24.4143751937138 5.37943155924246 0.5
    vertex -24.4143751937138 5.37943155924246 0.0
  endloop
endfacet
facet normal -0.998990994867072 -0.0449109360233959 0.0
  outer loop
    vertex -24.9747748716768 -1.1227734005849 0.5
    vertex -23.833184914902 -7.54846320863318 0.0
    vertex -23.833184914902 -7.54846320863318 0.5
  endloop
endfacet
facet normal -0.953327396596079 -0.301938528345327 0.0
  outer loop
    vertex -23.833184914902 -7.54846320863318 0.0
    vertex -24.9747748716768 -1.1227734005849 0.5
    vertex -24.9747748716768 -1.1227734005849 0.0
  endloop
endfacet
facet normal -0.953327396596079 -0.301938528345327 0.0
  outer loop
    vertex -23.833184914902 -7.54846320863318 0.5
    vertex -21.0674027923769 -13.4597377234384 0.0
    vertex -21.0674027923769 -13.4597377234384 0.5
  endloop
endfacet
facet normal -0.842696111695076 -0.538389508937535 0.0
  outer loop
    vertex -21.0674027923769 -13.4597377234384 0.0
    vertex -23.833184914902 -7.54846320863318 0.5
    vertex -23.833184914902 -7.54846320863318 0.0
  endloop
endfacet
facet normal -0.842696111695076 -0.538389508937535 0.0
  outer loop
    vertex -21.0674027923769 -13.4597377234384 0.5
    vertex -16.8659119850806 -18.4537533556595 0.0
    vertex -16.8659119850806 -18.4537533556595 0.5
  endloop
endfacet
facet normal -0.674636479403224 -0.73815013422638 0.0
  outer loop
    vertex -16.8659119850806 -18.4537533556595 0.0
    vertex -21.0674027923769 -13.4597377234384 0.5
    vertex -21.0674027923769 -13.4597377234384 0.0
  endloop
endfacet
facet normal -0.460601485929538 -0.887607047718472 0.0
  outer loop
    vertex -11.5150371482384 -22.1901761929618 0.5
    vertex -16.8659119850806 -18.4537533556595 0.0
    vertex -11.5150371482384 -22.1901761929618 0.0
  endloop
endfacet
facet normal -0.674636479403224 -0.73815013422638 0.0
  outer loop
    vertex -16.8659119850806 -18.4537533556595 0.0
    vertex -11.5150371482384 -22.1901761929618 0.5
    vertex -16.8659119850806 -18.4537533556595 0.5
  endloop
endfacet
endsolid Untitled-54671df4
