solid Untitled-54685047
facet normal 0.0 0.0 -1.0
  outer loop
    vertex 127.62374972526 32.1302010832926 0.0
    vertex 133.397252417156 22.1302010832926 0.0
    vertex 132.117760492845 -0.0859439374884869 0.0
  endloop
endfacet
facet normal 0.0 0.0 -1.0
  outer loop
    vertex 133.397252417156 22.1302010832926 0.0
    vertex 127.62374972526 32.1302010832926 0.0
    vertex 164.82374972526 32.1302010832926 0.0
  endloop
endfacet
facet normal 0.0 0.0 -1.0
  outer loop
    vertex 133.397252417156 22.1302010832926 0.0
    vertex 164.82374972526 32.1302010832926 0.0
    vertex 159.050247033364 22.1302010832926 0.0
  endloop
endfacet
facet normal 0.0 0.0 -1.0
  outer loop
    vertex 159.050247033364 22.1302010832926 0.0
    vertex 164.82374972526 32.1302010832926 0.0
    vertex 160.329738957675 -0.0859439374884545 0.0
  endloop
endfacet
facet normal 0.0 0.0 -1.0
  outer loop
    vertex 133.397252417156 22.1302010832926 0.0
    vertex 139.170755109052 12.1302010832926 0.0
    vertex 132.117760492845 -0.0859439374884869 0.0
  endloop
endfacet
facet normal 0.0 0.0 -1.0
  outer loop
    vertex 139.170755109052 12.1302010832926 0.0
    vertex 133.397252417156 22.1302010832926 0.0
    vertex 146.22374972526 12.1302010832926 0.0
  endloop
endfacet
facet normal 0.0 0.0 -1.0
  outer loop
    vertex 139.170755109052 12.1302010832926 0.0
    vertex 146.22374972526 12.1302010832926 0.0
    vertex 144.304511838793 1.02212857290208 0.0
  endloop
endfacet
facet normal 0.0 0.0 -1.0
  outer loop
    vertex 144.304511838793 1.02212857290208 0.0
    vertex 146.22374972526 12.1302010832926 0.0
    vertex 146.22374972526 -2.30208895826959 0.0
  endloop
endfacet
facet normal 0.0 0.0 -1.0
  outer loop
    vertex 146.22374972526 -2.30208895826959 0.0
    vertex 146.22374972526 12.1302010832926 0.0
    vertex 148.142987611727 1.02212857290208 0.0
  endloop
endfacet
facet normal 0.0 0.0 -1.0
  outer loop
    vertex 146.22374972526 -2.30208895826959 0.0
    vertex 148.142987611727 1.02212857290208 0.0
    vertex 153.276744341467 -12.3020889582696 0.0
  endloop
endfacet
facet normal 0.0 0.0 -1.0
  outer loop
    vertex 153.276744341467 -12.3020889582696 0.0
    vertex 148.142987611727 1.02212857290208 0.0
    vertex 156.803241649571 -6.19401644787903 0.0
  endloop
endfacet
facet normal 0.0 0.0 -1.0
  outer loop
    vertex 156.803241649571 -6.19401644787903 0.0
    vertex 148.142987611727 1.02212857290208 0.0
    vertex 160.329738957675 -0.0859439374884545 0.0
  endloop
endfacet
facet normal 0.0 0.0 -1.0
  outer loop
    vertex 156.803241649571 -6.19401644787903 0.0
    vertex 160.329738957675 -0.0859439374884545 0.0
    vertex 171.876744341467 -0.0859439374884679 0.0
  endloop
endfacet
facet normal 0.0 0.0 -1.0
  outer loop
    vertex 171.876744341467 -0.0859439374884679 0.0
    vertex 160.329738957675 -0.0859439374884545 0.0
    vertex 165.463495687415 11.0221285729021 0.0
  endloop
endfacet
facet normal 0.0 0.0 -1.0
  outer loop
    vertex 165.463495687415 11.0221285729021 0.0
    vertex 160.329738957675 -0.0859439374884545 0.0
    vertex 164.82374972526 32.1302010832926 0.0
  endloop
endfacet
facet normal 0.0 0.0 -1.0
  outer loop
    vertex 171.876744341467 -0.0859439374884679 0.0
    vertex 165.463495687415 11.0221285729021 0.0
    vertex 183.42374972526 -0.085943937488477 0.0
  endloop
endfacet
facet normal 0.0 0.0 -1.0
  outer loop
    vertex 120.570755109052 -0.0859439374884785 0.0
    vertex 127.62374972526 -32.3020889582696 0.0
    vertex 109.02374972526 -0.0859439374884725 0.0
  endloop
endfacet
facet normal 0.0 0.0 -1.0
  outer loop
    vertex 127.62374972526 -32.3020889582696 0.0
    vertex 120.570755109052 -0.0859439374884785 0.0
    vertex 133.397252417156 -22.3020889582696 0.0
  endloop
endfacet
facet normal 0.0 0.0 -1.0
  outer loop
    vertex 127.62374972526 -32.3020889582696 0.0
    vertex 133.397252417156 -22.3020889582696 0.0
    vertex 146.22374972526 -22.3020889582696 0.0
  endloop
endfacet
facet normal 0.0 0.0 -1.0
  outer loop
    vertex 146.22374972526 -22.3020889582696 0.0
    vertex 133.397252417156 -22.3020889582696 0.0
    vertex 139.170755109052 -12.3020889582696 0.0
  endloop
endfacet
facet normal 0.0 0.0 -1.0
  outer loop
    vertex 139.170755109052 -12.3020889582696 0.0
    vertex 133.397252417156 -22.3020889582696 0.0
    vertex 135.644257800949 -6.19401644787904 0.0
  endloop
endfacet
facet normal 0.0 0.0 -1.0
  outer loop
    vertex 146.22374972526 -22.3020889582696 0.0
    vertex 139.170755109052 -12.3020889582696 0.0
    vertex 153.276744341467 -12.3020889582696 0.0
  endloop
endfacet
facet normal 0.0 0.0 -1.0
  outer loop
    vertex 146.22374972526 -22.3020889582696 0.0
    vertex 153.276744341467 -12.3020889582696 0.0
    vertex 164.82374972526 -32.3020889582696 0.0
  endloop
endfacet
facet normal 0.0 0.0 -1.0
  outer loop
    vertex 164.82374972526 -32.3020889582696 0.0
    vertex 153.276744341467 -12.3020889582696 0.0
    vertex 159.050247033364 -22.3020889582696 0.0
  endloop
endfacet
facet normal 0.0 0.0 -1.0
  outer loop
    vertex 159.050247033364 -22.3020889582696 0.0
    vertex 153.276744341467 -12.3020889582696 0.0
    vertex 156.803241649571 -6.19401644787903 0.0
  endloop
endfacet
facet normal 0.0 0.0 -1.0
  outer loop
    vertex 164.82374972526 -32.3020889582696 0.0
    vertex 159.050247033364 -22.3020889582696 0.0
    vertex 171.876744341467 -0.0859439374884679 0.0
  endloop
endfacet
facet normal 0.0 0.0 -1.0
  outer loop
    vertex 164.82374972526 -32.3020889582696 0.0
    vertex 171.876744341467 -0.0859439374884679 0.0
    vertex 183.42374972526 -0.085943937488477 0.0
  endloop
endfacet
facet normal 0.0 0.0 -1.0
  outer loop
    vertex 146.22374972526 12.1302010832926 0.0
    vertex 153.276744341467 12.1302010832926 0.0
    vertex 148.142987611727 1.02212857290208 0.0
  endloop
endfacet
facet normal 0.0 0.0 -1.0
  outer loop
    vertex 153.276744341467 12.1302010832926 0.0
    vertex 146.22374972526 12.1302010832926 0.0
    vertex 159.050247033364 22.1302010832926 0.0
  endloop
endfacet
facet normal 0.0 0.0 -1.0
  outer loop
    vertex 153.276744341467 12.1302010832926 0.0
    vertex 159.050247033364 22.1302010832926 0.0
    vertex 160.329738957675 -0.0859439374884545 0.0
  endloop
endfacet
facet normal 0.0 0.0 -1.0
  outer loop
    vertex 126.984003763104 11.0221285729021 0.0
    vertex 120.570755109052 -0.0859439374884785 0.0
    vertex 109.02374972526 -0.0859439374884725 0.0
  endloop
endfacet
facet normal 0.0 0.0 -1.0
  outer loop
    vertex 120.570755109052 -0.0859439374884785 0.0
    vertex 126.984003763104 11.0221285729021 0.0
    vertex 132.117760492845 -0.0859439374884869 0.0
  endloop
endfacet
facet normal 0.0 0.0 -1.0
  outer loop
    vertex 120.570755109052 -0.0859439374884785 0.0
    vertex 132.117760492845 -0.0859439374884869 0.0
    vertex 135.644257800949 -6.19401644787904 0.0
  endloop
endfacet
facet normal 0.0 0.0 -1.0
  outer loop
    vertex 132.117760492845 -0.0859439374884869 0.0
    vertex 126.984003763104 11.0221285729021 0.0
    vertex 127.62374972526 32.1302010832926 0.0
  endloop
endfacet
facet normal 0.0 0.0 -1.0
  outer loop
    vertex 135.644257800949 -6.19401644787904 0.0
    vertex 132.117760492845 -0.0859439374884869 0.0
    vertex 144.304511838793 1.02212857290208 0.0
  endloop
endfacet
facet normal 0.0 0.0 -1.0
  outer loop
    vertex 135.644257800949 -6.19401644787904 0.0
    vertex 144.304511838793 1.02212857290208 0.0
    vertex 139.170755109052 -12.3020889582696 0.0
  endloop
endfacet
facet normal 0.0 0.0 -1.0
  outer loop
    vertex 139.170755109052 -12.3020889582696 0.0
    vertex 144.304511838793 1.02212857290208 0.0
    vertex 146.22374972526 -2.30208895826959 0.0
  endloop
endfacet
facet normal 0.52600606611994 0.850480816012346 0.0
  outer loop
    vertex 165.463495687415 11.0221285729021 0.5
    vertex 183.42374972526 -0.085943937488477 0.0
    vertex 165.463495687415 11.0221285729021 0.0
  endloop
endfacet
facet normal 0.52600606611994 0.850480816012346 0.0
  outer loop
    vertex 183.42374972526 -0.085943937488477 0.0
    vertex 165.463495687415 11.0221285729021 0.5
    vertex 183.42374972526 -0.085943937488477 0.5
  endloop
endfacet
facet normal 0.999541025157981 0.0302942077984117 0.0
  outer loop
    vertex 164.82374972526 32.1302010832926 0.0
    vertex 165.463495687415 11.0221285729021 0.5
    vertex 165.463495687415 11.0221285729021 0.0
  endloop
endfacet
facet normal 0.999541025157981 0.0302942077984117 0.0
  outer loop
    vertex 165.463495687415 11.0221285729021 0.5
    vertex 164.82374972526 32.1302010832926 0.0
    vertex 164.82374972526 32.1302010832926 0.5
  endloop
endfacet
facet normal 0.866025403784438 -0.500000000000001 0.0
  outer loop
    vertex 183.42374972526 -0.085943937488477 0.0
    vertex 164.82374972526 -32.3020889582696 0.5
    vertex 164.82374972526 -32.3020889582696 0.0
  endloop
endfacet
facet normal 0.866025403784438 -0.500000000000001 0.0
  outer loop
    vertex 164.82374972526 -32.3020889582696 0.5
    vertex 183.42374972526 -0.085943937488477 0.0
    vertex 183.42374972526 -0.085943937488477 0.5
  endloop
endfacet
facet normal -0.0 1.0 0.0
  outer loop
    vertex 127.62374972526 32.1302010832926 0.5
    vertex 164.82374972526 32.1302010832926 0.0
    vertex 127.62374972526 32.1302010832926 0.0
  endloop
endfacet
facet normal -0.0 1.0 0.0
  outer loop
    vertex 164.82374972526 32.1302010832926 0.0
    vertex 127.62374972526 32.1302010832926 0.5
    vertex 164.82374972526 32.1302010832926 0.5
  endloop
endfacet
facet normal 0.907743040737845 -0.419526604629565 0.0
  outer loop
    vertex 153.276744341467 12.1302010832926 0.0
    vertex 148.142987611727 1.02212857290208 0.5
    vertex 148.142987611727 1.02212857290208 0.0
  endloop
endfacet
facet normal 0.907743040737845 -0.419526604629565 0.0
  outer loop
    vertex 148.142987611727 1.02212857290208 0.5
    vertex 153.276744341467 12.1302010832926 0.0
    vertex 153.276744341467 12.1302010832926 0.5
  endloop
endfacet
facet normal 4.99781765760131e-016 1.0 0.0
  outer loop
    vertex 139.170755109052 -12.3020889582696 0.5
    vertex 153.276744341467 -12.3020889582696 0.0
    vertex 139.170755109052 -12.3020889582696 0.0
  endloop
endfacet
facet normal 4.99781765760131e-016 1.0 0.0
  outer loop
    vertex 153.276744341467 -12.3020889582696 0.0
    vertex 139.170755109052 -12.3020889582696 0.5
    vertex 153.276744341467 -12.3020889582696 0.5
  endloop
endfacet
facet normal -0.614853340137884 0.788641471215715 0.0
  outer loop
    vertex 146.22374972526 12.1302010832926 0.5
    vertex 159.050247033364 22.1302010832926 0.0
    vertex 146.22374972526 12.1302010832926 0.0
  endloop
endfacet
facet normal -0.614853340137884 0.788641471215715 0.0
  outer loop
    vertex 159.050247033364 22.1302010832926 0.0
    vertex 146.22374972526 12.1302010832926 0.5
    vertex 159.050247033364 22.1302010832926 0.5
  endloop
endfacet
facet normal -0.817192217541556 -0.576365231072724 -0.0
  outer loop
    vertex 146.22374972526 -2.30208895826959 0.5
    vertex 153.276744341467 -12.3020889582696 0.0
    vertex 153.276744341467 -12.3020889582696 0.5
  endloop
endfacet
facet normal -0.817192217541556 -0.576365231072724 -0.0
  outer loop
    vertex 153.276744341467 -12.3020889582696 0.0
    vertex 146.22374972526 -2.30208895826959 0.5
    vertex 146.22374972526 -2.30208895826959 0.0
  endloop
endfacet
facet normal -0.0 -1.0 -0.0
  outer loop
    vertex 159.050247033364 22.1302010832926 0.5
    vertex 133.397252417156 22.1302010832926 0.0
    vertex 159.050247033364 22.1302010832926 0.0
  endloop
endfacet
facet normal -0.0 -1.0 -0.0
  outer loop
    vertex 133.397252417156 22.1302010832926 0.0
    vertex 159.050247033364 22.1302010832926 0.5
    vertex 133.397252417156 22.1302010832926 0.5
  endloop
endfacet
facet normal -0.0905508231962903 0.995891835702289 0.0
  outer loop
    vertex 132.117760492845 -0.0859439374884869 0.5
    vertex 144.304511838793 1.02212857290208 0.0
    vertex 132.117760492845 -0.0859439374884869 0.0
  endloop
endfacet
facet normal -0.0905508231962903 0.995891835702289 0.0
  outer loop
    vertex 144.304511838793 1.02212857290208 0.0
    vertex 132.117760492845 -0.0859439374884869 0.5
    vertex 144.304511838793 1.02212857290208 0.5
  endloop
endfacet
facet normal 0.817192217541556 -0.576365231072725 0.0
  outer loop
    vertex 146.22374972526 -2.30208895826959 0.0
    vertex 139.170755109052 -12.3020889582696 0.5
    vertex 139.170755109052 -12.3020889582696 0.0
  endloop
endfacet
facet normal 0.817192217541556 -0.576365231072725 0.0
  outer loop
    vertex 139.170755109052 -12.3020889582696 0.5
    vertex 146.22374972526 -2.30208895826959 0.0
    vertex 146.22374972526 -2.30208895826959 0.5
  endloop
endfacet
facet normal 0.614853340137883 0.788641471215716 0.0
  outer loop
    vertex 133.397252417156 22.1302010832926 0.5
    vertex 146.22374972526 12.1302010832926 0.0
    vertex 133.397252417156 22.1302010832926 0.0
  endloop
endfacet
facet normal 0.614853340137883 0.788641471215716 0.0
  outer loop
    vertex 146.22374972526 12.1302010832926 0.0
    vertex 133.397252417156 22.1302010832926 0.5
    vertex 146.22374972526 12.1302010832926 0.5
  endloop
endfacet
facet normal 0.866025403784438 -0.500000000000001 0.0
  outer loop
    vertex 139.170755109052 12.1302010832926 0.0
    vertex 132.117760492845 -0.0859439374884869 0.5
    vertex 132.117760492845 -0.0859439374884869 0.0
  endloop
endfacet
facet normal 0.866025403784438 -0.500000000000001 0.0
  outer loop
    vertex 132.117760492845 -0.0859439374884869 0.5
    vertex 139.170755109052 12.1302010832926 0.0
    vertex 139.170755109052 12.1302010832926 0.5
  endloop
endfacet
facet normal 0.0905508231962881 0.995891835702289 0.0
  outer loop
    vertex 148.142987611727 1.02212857290208 0.5
    vertex 160.329738957675 -0.0859439374884545 0.0
    vertex 148.142987611727 1.02212857290208 0.0
  endloop
endfacet
facet normal 0.0905508231962881 0.995891835702289 0.0
  outer loop
    vertex 160.329738957675 -0.0859439374884545 0.0
    vertex 148.142987611727 1.02212857290208 0.5
    vertex 160.329738957675 -0.0859439374884545 0.5
  endloop
endfacet
facet normal -0.473534959038042 -0.880775023810757 -0.0
  outer loop
    vertex 164.82374972526 -32.3020889582696 0.5
    vertex 146.22374972526 -22.3020889582696 0.0
    vertex 164.82374972526 -32.3020889582696 0.0
  endloop
endfacet
facet normal -0.473534959038042 -0.880775023810757 -0.0
  outer loop
    vertex 146.22374972526 -22.3020889582696 0.0
    vertex 164.82374972526 -32.3020889582696 0.5
    vertex 146.22374972526 -22.3020889582696 0.5
  endloop
endfacet
facet normal -0.0 -0.0 1.0
  outer loop
    vertex 120.570755109052 -0.0859439374884785 0.5
    vertex 126.984003763104 11.0221285729021 0.5
    vertex 109.02374972526 -0.0859439374884725 0.5
  endloop
endfacet
facet normal -0.0 -0.0 1.0
  outer loop
    vertex 126.984003763104 11.0221285729021 0.5
    vertex 120.570755109052 -0.0859439374884785 0.5
    vertex 132.117760492845 -0.0859439374884869 0.5
  endloop
endfacet
facet normal -0.0 -0.0 1.0
  outer loop
    vertex 132.117760492845 -0.0859439374884869 0.5
    vertex 120.570755109052 -0.0859439374884785 0.5
    vertex 135.644257800949 -6.19401644787904 0.5
  endloop
endfacet
facet normal -0.0 -0.0 1.0
  outer loop
    vertex 126.984003763104 11.0221285729021 0.5
    vertex 132.117760492845 -0.0859439374884869 0.5
    vertex 127.62374972526 32.1302010832926 0.5
  endloop
endfacet
facet normal -0.0 -0.0 1.0
  outer loop
    vertex 132.117760492845 -0.0859439374884869 0.5
    vertex 135.644257800949 -6.19401644787904 0.5
    vertex 144.304511838793 1.02212857290208 0.5
  endloop
endfacet
facet normal -0.0 -0.0 1.0
  outer loop
    vertex 144.304511838793 1.02212857290208 0.5
    vertex 135.644257800949 -6.19401644787904 0.5
    vertex 139.170755109052 -12.3020889582696 0.5
  endloop
endfacet
facet normal -0.0 -0.0 1.0
  outer loop
    vertex 144.304511838793 1.02212857290208 0.5
    vertex 139.170755109052 -12.3020889582696 0.5
    vertex 146.22374972526 -2.30208895826959 0.5
  endloop
endfacet
facet normal -0.0 -0.0 1.0
  outer loop
    vertex 146.22374972526 12.1302010832926 0.5
    vertex 153.276744341467 12.1302010832926 0.5
    vertex 159.050247033364 22.1302010832926 0.5
  endloop
endfacet
facet normal -0.0 -0.0 1.0
  outer loop
    vertex 153.276744341467 12.1302010832926 0.5
    vertex 146.22374972526 12.1302010832926 0.5
    vertex 148.142987611727 1.02212857290208 0.5
  endloop
endfacet
facet normal -0.0 -0.0 1.0
  outer loop
    vertex 159.050247033364 22.1302010832926 0.5
    vertex 153.276744341467 12.1302010832926 0.5
    vertex 160.329738957675 -0.0859439374884545 0.5
  endloop
endfacet
facet normal -0.0 -0.0 1.0
  outer loop
    vertex 127.62374972526 -32.3020889582696 0.5
    vertex 120.570755109052 -0.0859439374884785 0.5
    vertex 109.02374972526 -0.0859439374884725 0.5
  endloop
endfacet
facet normal -0.0 -0.0 1.0
  outer loop
    vertex 120.570755109052 -0.0859439374884785 0.5
    vertex 127.62374972526 -32.3020889582696 0.5
    vertex 133.397252417156 -22.3020889582696 0.5
  endloop
endfacet
facet normal -0.0 -0.0 1.0
  outer loop
    vertex 133.397252417156 -22.3020889582696 0.5
    vertex 127.62374972526 -32.3020889582696 0.5
    vertex 146.22374972526 -22.3020889582696 0.5
  endloop
endfacet
facet normal -0.0 -0.0 1.0
  outer loop
    vertex 133.397252417156 -22.3020889582696 0.5
    vertex 146.22374972526 -22.3020889582696 0.5
    vertex 139.170755109052 -12.3020889582696 0.5
  endloop
endfacet
facet normal -0.0 -0.0 1.0
  outer loop
    vertex 133.397252417156 -22.3020889582696 0.5
    vertex 139.170755109052 -12.3020889582696 0.5
    vertex 135.644257800949 -6.19401644787904 0.5
  endloop
endfacet
facet normal -0.0 -0.0 1.0
  outer loop
    vertex 139.170755109052 -12.3020889582696 0.5
    vertex 146.22374972526 -22.3020889582696 0.5
    vertex 153.276744341467 -12.3020889582696 0.5
  endloop
endfacet
facet normal -0.0 -0.0 1.0
  outer loop
    vertex 153.276744341467 -12.3020889582696 0.5
    vertex 146.22374972526 -22.3020889582696 0.5
    vertex 164.82374972526 -32.3020889582696 0.5
  endloop
endfacet
facet normal -0.0 -0.0 1.0
  outer loop
    vertex 153.276744341467 -12.3020889582696 0.5
    vertex 164.82374972526 -32.3020889582696 0.5
    vertex 159.050247033364 -22.3020889582696 0.5
  endloop
endfacet
facet normal -0.0 -0.0 1.0
  outer loop
    vertex 153.276744341467 -12.3020889582696 0.5
    vertex 159.050247033364 -22.3020889582696 0.5
    vertex 156.803241649571 -6.19401644787903 0.5
  endloop
endfacet
facet normal -0.0 -0.0 1.0
  outer loop
    vertex 159.050247033364 -22.3020889582696 0.5
    vertex 164.82374972526 -32.3020889582696 0.5
    vertex 171.876744341467 -0.0859439374884679 0.5
  endloop
endfacet
facet normal -0.0 -0.0 1.0
  outer loop
    vertex 171.876744341467 -0.0859439374884679 0.5
    vertex 164.82374972526 -32.3020889582696 0.5
    vertex 183.42374972526 -0.085943937488477 0.5
  endloop
endfacet
facet normal -0.0 -0.0 1.0
  outer loop
    vertex 139.170755109052 12.1302010832926 0.5
    vertex 133.397252417156 22.1302010832926 0.5
    vertex 132.117760492845 -0.0859439374884869 0.5
  endloop
endfacet
facet normal -0.0 -0.0 1.0
  outer loop
    vertex 133.397252417156 22.1302010832926 0.5
    vertex 139.170755109052 12.1302010832926 0.5
    vertex 146.22374972526 12.1302010832926 0.5
  endloop
endfacet
facet normal -0.0 -0.0 1.0
  outer loop
    vertex 146.22374972526 12.1302010832926 0.5
    vertex 139.170755109052 12.1302010832926 0.5
    vertex 144.304511838793 1.02212857290208 0.5
  endloop
endfacet
facet normal -0.0 -0.0 1.0
  outer loop
    vertex 146.22374972526 12.1302010832926 0.5
    vertex 144.304511838793 1.02212857290208 0.5
    vertex 146.22374972526 -2.30208895826959 0.5
  endloop
endfacet
facet normal -0.0 -0.0 1.0
  outer loop
    vertex 146.22374972526 12.1302010832926 0.5
    vertex 146.22374972526 -2.30208895826959 0.5
    vertex 148.142987611727 1.02212857290208 0.5
  endloop
endfacet
facet normal -0.0 -0.0 1.0
  outer loop
    vertex 148.142987611727 1.02212857290208 0.5
    vertex 146.22374972526 -2.30208895826959 0.5
    vertex 153.276744341467 -12.3020889582696 0.5
  endloop
endfacet
facet normal -0.0 -0.0 1.0
  outer loop
    vertex 148.142987611727 1.02212857290208 0.5
    vertex 153.276744341467 -12.3020889582696 0.5
    vertex 156.803241649571 -6.19401644787903 0.5
  endloop
endfacet
facet normal -0.0 -0.0 1.0
  outer loop
    vertex 148.142987611727 1.02212857290208 0.5
    vertex 156.803241649571 -6.19401644787903 0.5
    vertex 160.329738957675 -0.0859439374884545 0.5
  endloop
endfacet
facet normal -0.0 -0.0 1.0
  outer loop
    vertex 160.329738957675 -0.0859439374884545 0.5
    vertex 156.803241649571 -6.19401644787903 0.5
    vertex 171.876744341467 -0.0859439374884679 0.5
  endloop
endfacet
facet normal -0.0 -0.0 1.0
  outer loop
    vertex 160.329738957675 -0.0859439374884545 0.5
    vertex 171.876744341467 -0.0859439374884679 0.5
    vertex 165.463495687415 11.0221285729021 0.5
  endloop
endfacet
facet normal -0.0 -0.0 1.0
  outer loop
    vertex 160.329738957675 -0.0859439374884545 0.5
    vertex 165.463495687415 11.0221285729021 0.5
    vertex 164.82374972526 32.1302010832926 0.5
  endloop
endfacet
facet normal -0.0 -0.0 1.0
  outer loop
    vertex 165.463495687415 11.0221285729021 0.5
    vertex 171.876744341467 -0.0859439374884679 0.5
    vertex 183.42374972526 -0.085943937488477 0.5
  endloop
endfacet
facet normal -0.0 -0.0 1.0
  outer loop
    vertex 127.62374972526 32.1302010832926 0.5
    vertex 133.397252417156 22.1302010832926 0.5
    vertex 164.82374972526 32.1302010832926 0.5
  endloop
endfacet
facet normal -0.0 -0.0 1.0
  outer loop
    vertex 133.397252417156 22.1302010832926 0.5
    vertex 127.62374972526 32.1302010832926 0.5
    vertex 132.117760492845 -0.0859439374884869 0.5
  endloop
endfacet
facet normal -0.0 -0.0 1.0
  outer loop
    vertex 164.82374972526 32.1302010832926 0.5
    vertex 133.397252417156 22.1302010832926 0.5
    vertex 159.050247033364 22.1302010832926 0.5
  endloop
endfacet
facet normal -0.0 -0.0 1.0
  outer loop
    vertex 164.82374972526 32.1302010832926 0.5
    vertex 159.050247033364 22.1302010832926 0.5
    vertex 160.329738957675 -0.0859439374884545 0.5
  endloop
endfacet
facet normal -0.866025403784439 -0.5 -0.0
  outer loop
    vertex 109.02374972526 -0.0859439374884725 0.5
    vertex 127.62374972526 -32.3020889582696 0.0
    vertex 127.62374972526 -32.3020889582696 0.5
  endloop
endfacet
facet normal -0.866025403784439 -0.5 -0.0
  outer loop
    vertex 127.62374972526 -32.3020889582696 0.0
    vertex 109.02374972526 -0.0859439374884725 0.5
    vertex 109.02374972526 -0.0859439374884725 0.0
  endloop
endfacet
facet normal 0.473534959038041 -0.880775023810757 0.0
  outer loop
    vertex 146.22374972526 -22.3020889582696 0.5
    vertex 127.62374972526 -32.3020889582696 0.0
    vertex 146.22374972526 -22.3020889582696 0.0
  endloop
endfacet
facet normal 0.473534959038041 -0.880775023810757 0.0
  outer loop
    vertex 127.62374972526 -32.3020889582696 0.0
    vertex 146.22374972526 -22.3020889582696 0.5
    vertex 127.62374972526 -32.3020889582696 0.5
  endloop
endfacet
facet normal -0.526006066119939 0.850480816012346 0.0
  outer loop
    vertex 109.02374972526 -0.0859439374884725 0.5
    vertex 126.984003763104 11.0221285729021 0.0
    vertex 109.02374972526 -0.0859439374884725 0.0
  endloop
endfacet
facet normal -0.526006066119939 0.850480816012346 0.0
  outer loop
    vertex 126.984003763104 11.0221285729021 0.0
    vertex 109.02374972526 -0.0859439374884725 0.5
    vertex 126.984003763104 11.0221285729021 0.5
  endloop
endfacet
facet normal -0.999541025157981 0.0302942077984117 0.0
  outer loop
    vertex 127.62374972526 32.1302010832926 0.5
    vertex 126.984003763104 11.0221285729021 0.0
    vertex 126.984003763104 11.0221285729021 0.5
  endloop
endfacet
facet normal -0.999541025157981 0.0302942077984117 0.0
  outer loop
    vertex 126.984003763104 11.0221285729021 0.0
    vertex 127.62374972526 32.1302010832926 0.5
    vertex 127.62374972526 32.1302010832926 0.0
  endloop
endfacet
facet normal -0.866025403784438 -0.5 -0.0
  outer loop
    vertex 153.276744341467 12.1302010832926 0.5
    vertex 160.329738957675 -0.0859439374884545 0.0
    vertex 160.329738957675 -0.0859439374884545 0.5
  endloop
endfacet
facet normal -0.866025403784438 -0.5 -0.0
  outer loop
    vertex 160.329738957675 -0.0859439374884545 0.0
    vertex 153.276744341467 12.1302010832926 0.5
    vertex 153.276744341467 12.1302010832926 0.0
  endloop
endfacet
facet normal -0.907743040737846 -0.419526604629563 -0.0
  outer loop
    vertex 139.170755109052 12.1302010832926 0.5
    vertex 144.304511838793 1.02212857290208 0.0
    vertex 144.304511838793 1.02212857290208 0.5
  endloop
endfacet
facet normal -0.907743040737846 -0.419526604629563 -0.0
  outer loop
    vertex 144.304511838793 1.02212857290208 0.0
    vertex 139.170755109052 12.1302010832926 0.5
    vertex 139.170755109052 12.1302010832926 0.0
  endloop
endfacet
facet normal -0.375556878481803 -0.926799347768979 -0.0
  outer loop
    vertex 135.644257800949 -6.19401644787904 0.5
    vertex 120.570755109052 -0.0859439374884785 0.0
    vertex 135.644257800949 -6.19401644787904 0.0
  endloop
endfacet
facet normal -0.375556878481803 -0.926799347768979 -0.0
  outer loop
    vertex 120.570755109052 -0.0859439374884785 0.0
    vertex 135.644257800949 -6.19401644787904 0.5
    vertex 120.570755109052 -0.0859439374884785 0.5
  endloop
endfacet
facet normal 0.990410218619686 0.138157876553263 0.0
  outer loop
    vertex 156.803241649571 -6.19401644787903 0.0
    vertex 159.050247033364 -22.3020889582696 0.5
    vertex 159.050247033364 -22.3020889582696 0.0
  endloop
endfacet
facet normal 0.990410218619686 0.138157876553263 0.0
  outer loop
    vertex 159.050247033364 -22.3020889582696 0.5
    vertex 156.803241649571 -6.19401644787903 0.0
    vertex 156.803241649571 -6.19401644787903 0.5
  endloop
endfacet
facet normal -0.990410218619686 0.138157876553263 0.0
  outer loop
    vertex 135.644257800949 -6.19401644787904 0.5
    vertex 133.397252417156 -22.3020889582696 0.0
    vertex 133.397252417156 -22.3020889582696 0.5
  endloop
endfacet
facet normal -0.990410218619686 0.138157876553263 0.0
  outer loop
    vertex 133.397252417156 -22.3020889582696 0.0
    vertex 135.644257800949 -6.19401644787904 0.5
    vertex 135.644257800949 -6.19401644787904 0.0
  endloop
endfacet
facet normal 0.866025403784439 0.5 0.0
  outer loop
    vertex 120.570755109052 -0.0859439374884785 0.0
    vertex 133.397252417156 -22.3020889582696 0.5
    vertex 133.397252417156 -22.3020889582696 0.0
  endloop
endfacet
facet normal 0.866025403784439 0.5 0.0
  outer loop
    vertex 133.397252417156 -22.3020889582696 0.5
    vertex 120.570755109052 -0.0859439374884785 0.0
    vertex 120.570755109052 -0.0859439374884785 0.5
  endloop
endfacet
facet normal -0.866025403784438 0.500000000000001 0.0
  outer loop
    vertex 171.876744341467 -0.0859439374884679 0.5
    vertex 159.050247033364 -22.3020889582696 0.0
    vertex 159.050247033364 -22.3020889582696 0.5
  endloop
endfacet
facet normal -0.866025403784438 0.500000000000001 0.0
  outer loop
    vertex 159.050247033364 -22.3020889582696 0.0
    vertex 171.876744341467 -0.0859439374884679 0.5
    vertex 171.876744341467 -0.0859439374884679 0.0
  endloop
endfacet
facet normal 0.375556878481802 -0.926799347768979 0.0
  outer loop
    vertex 171.876744341467 -0.0859439374884679 0.5
    vertex 156.803241649571 -6.19401644787903 0.0
    vertex 171.876744341467 -0.0859439374884679 0.0
  endloop
endfacet
facet normal 0.375556878481802 -0.926799347768979 0.0
  outer loop
    vertex 156.803241649571 -6.19401644787903 0.0
    vertex 171.876744341467 -0.0859439374884679 0.5
    vertex 156.803241649571 -6.19401644787903 0.5
  endloop
endfacet
endsolid Untitled-54685047
